<?xml version="1.0" encoding="UTF-8"?>
<svg width="1200pt" height="1200pt" version="1.1" viewBox="0 0 1200 1200" xmlns="http://www.w3.org/2000/svg">
 <path d="m326.53 290.16c-3.6133 0.6875-6.2031 3.8789-6.1406 7.5547v604.57c0 4.1719 3.3828 7.5547 7.5586 7.5547h287.17c4.1719 0 7.5547-3.3828 7.5547-7.5547v-187.04c12.488-1.082 25.055-1.8906 37.785-1.8906 62.855 0 131.12 19.273 207.11 74.152 3.3906 2.4805 8.1523 1.7383 10.629-1.6523 2.4766-3.3906 1.7383-8.1484-1.6523-10.625-78.137-56.426-150.12-76.988-216.09-76.988-12.742 0-25.344 0.64844-37.785 1.6523v-128.23c12.488-1.082 25.055-1.8906 37.785-1.8906 62.855 0 131.12 19.273 207.11 74.152 3.3906 2.4805 8.1523 1.7383 10.629-1.6523 2.4766-3.3906 1.7383-8.1484-1.6523-10.625-78.137-56.426-150.12-76.988-216.09-76.988-12.742 0-25.344 0.64844-37.785 1.6523v-128.23c12.488-1.082 25.055-1.8906 37.785-1.8906 62.855 0 131.12 19.273 207.11 74.156 3.3906 2.4766 8.1523 1.7344 10.629-1.6562 2.4766-3.3906 1.7383-8.1484-1.6523-10.625-78.137-56.426-150.12-76.988-216.09-76.988-12.742 0-25.344 0.64844-37.785 1.6523v-115.01c0-4.1719-3.3828-7.5547-7.5547-7.5547h-287.17c-0.47266-0.046875-0.94531-0.046875-1.418 0zm8.9727 15.113h272.06v108.87c-102.7 11.156-194.35 49.191-272.06 42.508zm272.06 124.22v128.24c-102.7 11.156-194.35 49.191-272.06 42.508v-128.71c82.617 6.7617 173.41-30.598 272.06-42.039zm0 143.59v128.24c-102.7 11.152-194.35 49.191-272.06 42.508v-128.71c82.617 6.7617 173.41-30.598 272.06-42.039zm0 143.59v178.07h-272.06v-136.03c82.617 6.7617 173.41-30.598 272.06-42.039z"/>
</svg>
