<?xml version="1.0" encoding="UTF-8"?>
<svg width="1200pt" height="1200pt" version="1.1" viewBox="0 0 1200 1200" xmlns="http://www.w3.org/2000/svg">
 <g>
  <path d="m1070 835h-340c-5.5234 0-10 4.4766-10 10s4.4766 10 10 10h340c5.5234 0 10-4.4766 10-10s-4.4766-10-10-10z"/>
  <path d="m1070 895h-340c-5.5234 0-10 4.4766-10 10s4.4766 10 10 10h340c5.5234 0 10-4.4766 10-10s-4.4766-10-10-10z"/>
  <path d="m910 525h-10c0-79.566-31.605-155.87-87.867-212.13-56.262-56.262-132.57-87.867-212.13-87.867s-155.87 31.605-212.13 87.867c-56.262 56.262-87.867 132.57-87.867 212.13h-10c-50.391 0-98.719 20.02-134.35 55.648-35.629 35.633-55.648 83.961-55.648 134.35s20.02 98.719 55.648 134.35c35.633 35.629 83.961 55.648 134.35 55.648h410c0.042969-7.4023 2.8203-14.523 7.8008-20h-417.8c-45.086 0-88.328-17.91-120.21-49.793-31.883-31.879-49.793-75.121-49.793-120.21s17.91-88.328 49.793-120.21c31.879-31.883 75.121-49.793 120.21-49.793h30v-20c0-74.262 29.5-145.48 82.012-197.99 52.508-52.512 123.73-82.012 197.99-82.012s145.48 29.5 197.99 82.012c52.512 52.508 82.012 123.73 82.012 197.99v20h30c41.988 0.070312 82.469 15.676 113.64 43.809 31.168 28.137 50.82 66.812 55.172 108.57 4.3516 41.766-6.9102 83.66-31.609 117.62h24.102c18.742-29.988 28.688-64.637 28.699-100 0-50.391-20.02-98.719-55.648-134.35-35.633-35.629-83.961-55.648-134.35-55.648z"/>
  <path d="m1070 955h-340c-5.5234 0-10 4.4766-10 10s4.4766 10 10 10h340c5.5234 0 10-4.4766 10-10s-4.4766-10-10-10z"/>
 </g>
</svg>
