<?xml version="1.0" encoding="UTF-8"?>
<svg width="1200pt" height="1200pt" version="1.1" viewBox="0 0 1200 1200" xmlns="http://www.w3.org/2000/svg">
 <g>
  <path d="m799.38 394.86c-68.699-98.543-139.75-200.43-182.59-311.34-2.6758-6.9336-9.3359-11.508-16.766-11.52h-0.023438c-7.4141 0-14.09 4.5586-16.777 11.473-42.59 109.44-113.21 210.85-181.48 308.93-89.352 128.34-173.75 249.54-173.75 365.46 0 204.1 166.87 370.14 372 370.14s372-166.04 372-370.14c0-115.45-83.844-235.69-172.62-363zm-199.38 697.14c-185.27 0-336-149.89-336-334.14 0-104.63 81.254-221.33 167.28-344.89 61.246-87.961 124.31-178.56 168.65-276.48 44.617 99.254 108.2 190.44 169.92 278.96 85.449 122.53 166.15 238.27 166.15 342.41 0 184.25-150.73 334.14-336 334.14z"/>
  <path d="m727.4 588.61c-7.8945-6.0117-19.199-4.5117-25.234 3.3828l-222.98 291.96c-6.0352 7.8945-4.5234 19.199 3.3711 25.234 3.2656 2.4844 7.1055 3.6953 10.906 3.6953 5.4258 0 10.777-2.4375 14.316-7.0781l222.98-291.96c6.0508-7.9062 4.5391-19.199-3.3594-25.234z"/>
  <path d="m591.88 675.39c0-45.758-37.094-82.824-82.836-82.824-45.781 0-82.848 37.078-82.848 82.824 0 45.758 37.066 82.848 82.848 82.848 45.746 0.015624 82.836-37.078 82.836-82.848zm-129.68 0c0-25.812 21.023-46.824 46.848-46.824 25.824 0 46.836 21.012 46.836 46.824 0 25.824-21.012 46.848-46.836 46.848-25.824 0-46.848-21.012-46.848-46.848z"/>
  <path d="m690.25 758.26c-45.77 0-82.848 37.078-82.848 82.836s37.078 82.848 82.848 82.848c45.758 0 82.836-37.094 82.836-82.848 0-45.758-37.082-82.836-82.836-82.836zm0 129.68c-25.824 0-46.848-21.012-46.848-46.848 0-25.824 21.023-46.836 46.848-46.836 25.824 0 46.836 21.012 46.836 46.836 0.011718 25.836-21 46.848-46.836 46.848z"/>
 </g>
</svg>
