<?xml version="1.0" encoding="UTF-8"?>
<svg width="1200pt" height="1200pt" version="1.1" viewBox="0 0 1200 1200" xmlns="http://www.w3.org/2000/svg">
 <g>
  <path d="m687.68 759.38h-6.1172c-50.742-0.30469-101.7-13.219-147.84-37.453-17.344 6.6328-35.344 11.484-53.578 14.461-51.633 8.3906-100.48 3-145.2-16.008-27.75-11.812-52.992-28.477-75.164-49.664-22.617 9.8672-59.812 20.578-104.06 12.211-65.953-12.469-102.3-58.266-114.87-77.391-8.7422-13.312-29.25-44.461-28.289-89.086 0.9375-44.133 18.609-81.562 49.781-105.38 34.148-26.086 72.258-26.906 92.766-24.867 10.055-16.617 30.258-42.188 65.391-56.883 33.609-14.062 64.734-11.438 84.023-7.1719 7.6641-16.125 20.227-35.438 40.5-52.289 29.695-24.656 61.969-32.367 83.133-34.57 7.2188-16.875 16.312-32.789 27.141-47.367 41.344-55.688 97.875-78.867 127.9-87.703 27.68-8.1562 101.23-29.859 174.47 12.188 47.25 27.141 72.047 68.227 84.328 96.75 24.141-5.6719 68.695-10.453 113.91 14.039 37.289 20.203 57.398 51.07 67.102 70.922 20.438-3.3281 40.922-1.9453 59.859 4.1484 41.438 13.312 62.93 44.695 72.094 58.078 38.953 56.906 43.266 140.41 10.734 207.8-8.2969 17.18-54.703 103.62-154.8 118.8-49.617 7.5469-91.594-5.9531-117.28-17.977-20.977 25.969-46.172 47.156-75.023 63.047-53.414 29.414-103.36 31.312-130.9 31.312zm-153-69.492c2.5547 0 5.0859 0.63281 7.3828 1.8984 43.383 23.977 91.688 36.82 139.69 37.102 23.18 0.11719 71.438 0.42188 122.13-27.492 28.664-15.797 53.227-37.523 73.031-64.641 4.5234-6.1875 12.914-8.0391 19.617-4.3828 19.852 10.875 60.539 27.984 109.78 20.508 84.984-12.914 124.83-87.188 131.93-101.93 27.938-57.867 24.539-129.14-8.4375-177.33-8.0391-11.742-24.773-36.164-56.273-46.289-22.008-7.0547-42.422-4.4297-55.688-0.96094-7.5 1.9688-15.281-2.0391-18.07-9.2812-5.1562-13.453-21.188-46.898-58.43-67.055-45.727-24.773-90.82-12.375-103.57-7.9922-7.9219 2.7188-16.547-1.4297-19.336-9.3281-8.2969-23.508-29.227-66.984-76.008-93.844-61.945-35.578-126.4-16.547-150.68-9.3984-26.367 7.7812-76.008 28.078-112.05 76.641-11.086 14.93-20.086 31.453-26.789 49.102-2.1797 5.7188-7.5469 9.5859-13.664 9.8203-15.938 0.60938-46.875 5.0859-74.836 28.289-20.883 17.344-31.547 38.039-36.82 52.336-2.8594 7.7578-11.367 11.812-19.195 9.1641-11.625-3.9375-42.281-11.555-76.219 2.625-33.727 14.109-49.828 41.086-55.195 52.031-3.0234 6.1875-9.8438 9.5625-16.594 8.25-10.594-2.0625-47.625-6.8906-79.617 17.555-31.898 24.375-37.383 61.711-37.805 81.797-0.75 35.156 16.102 60.75 23.297 71.695 8.1328 12.375 39.07 53.602 95.086 64.195 42.727 8.0859 77.578-5.4141 94.57-14.156 5.9766-3.0703 13.289-1.875 17.953 2.9531 21.164 21.938 45.703 38.93 72.984 50.555 39.328 16.734 82.5 21.445 128.37 13.969 18.305-2.9766 36.352-8.1094 53.625-15.234 1.875-0.77344 3.8438-1.1484 5.8125-1.1484z"/>
  <path d="m860.39 986.51c-2.9531 0-5.9297-0.86719-8.5781-2.6484-6.9609-4.7344-8.7422-14.227-4.0078-21.164l109.48-160.62c4.7344-6.9609 14.203-8.7422 21.164-4.0078 6.9609 4.7344 8.7422 14.227 4.0078 21.164l-109.48 160.62c-2.9531 4.3359-7.7344 6.6562-12.609 6.6562z"/>
  <path d="m545.25 986.51c-2.9531 0-5.9297-0.86719-8.5781-2.6484-6.9609-4.7344-8.7422-14.227-4.0078-21.164l109.48-160.62c4.7344-6.9609 14.203-8.7422 21.164-4.0078 6.9609 4.7344 8.7422 14.227 4.0078 21.164l-109.48 160.62c-2.9531 4.3359-7.7344 6.6562-12.609 6.6562z"/>
  <path d="m230.11 986.51c-2.9531 0-5.9297-0.86719-8.5781-2.6484-6.9609-4.7344-8.7422-14.227-4.0078-21.164l109.48-160.62c4.7344-6.9609 14.203-8.7422 21.164-4.0078 6.9609 4.7344 8.7422 14.227 4.0078 21.164l-109.48 160.62c-2.9531 4.3359-7.7344 6.6562-12.609 6.6562z"/>
  <path d="m752.34 913.05c-2.8594 0-5.7422-0.79688-8.3203-2.4844-7.0547-4.5938-9.0234-14.039-4.4297-21.094l56.906-87.141c4.5938-7.0547 14.039-9.0234 21.094-4.4297s9.0234 14.039 4.4297 21.094l-56.906 87.141c-2.9297 4.4766-7.8047 6.9141-12.773 6.9141z"/>
  <path d="m440.79 913.05c-2.8594 0-5.7422-0.79688-8.3203-2.4844-7.0547-4.5938-9.0234-14.039-4.4297-21.094l56.906-87.141c4.5938-7.0547 14.039-9.0234 21.094-4.4297 7.0547 4.5938 9.0234 14.039 4.4297 21.094l-56.906 87.141c-2.9297 4.4766-7.8047 6.9141-12.773 6.9141z"/>
  <path d="m614.79 1112.6c-3.0469 0-6.1406-0.91406-8.8125-2.8359-6.8438-4.875-8.4609-14.391-3.5859-21.234l56.906-79.945c4.875-6.8672 14.391-8.4609 21.234-3.5859s8.4609 14.391 3.5859 21.234l-56.906 79.945c-2.9766 4.1719-7.6641 6.3984-12.422 6.3984z"/>
  <path d="m302.44 1112.6c-3.0469 0-6.1406-0.91406-8.8125-2.8359-6.8438-4.875-8.4609-14.391-3.5859-21.234l56.906-79.945c4.875-6.8672 14.391-8.4609 21.234-3.5859s8.4609 14.391 3.5859 21.234l-56.906 79.945c-2.9766 4.1719-7.6641 6.3984-12.422 6.3984z"/>
 </g>
</svg>
