<?xml version="1.0" encoding="UTF-8"?>
<svg width="1200pt" height="1200pt" version="1.1" viewBox="0 0 1200 1200" xmlns="http://www.w3.org/2000/svg">
 <g>
  <path d="m621 822.35v-110.23h26.953c11.594 0 21-9.4062 21-21s-9.4062-21-21-21h-26.953v-74.594h26.953c11.594 0 21-9.4062 21-21s-9.4062-21-21-21h-26.953v-74.602h26.953c11.594 0 21-9.4062 21-21s-9.4062-21-21-21h-26.953v-74.594h26.953c11.594 0 21-9.4062 21-21s-9.4062-21-21-21h-26.953v-74.594h26.953c11.594 0 21-9.4062 21-21s-9.4062-21-21-21h-26.953v-4.7773c0-11.594-9.4062-21-21-21s-21 9.4062-21 21v623.4c-38.965 9.4805-68.016 44.566-68.016 86.41 0 49.078 39.938 89.004 89.016 89.004s89.016-39.938 89.016-89.004c0-41.852-29.051-76.949-68.016-86.418zm-21 133.42c-25.922 0-47.016-21.086-47.016-47.004 0-25.922 21.094-47.02 47.016-47.02s47.016 21.098 47.016 47.016c0 25.922-21.094 47.008-47.016 47.008z"/>
  <path d="m742 700.26v-519.27c0-78.301-63.695-142-142-142s-142 63.695-142 142v519.27c-69.254 47.113-110.26 124.2-110.26 208.49 0 139.09 113.16 252.25 252.25 252.25s252.25-113.16 252.25-252.25c0-84.289-41.008-161.37-110.26-208.49zm-142 418.74c-115.93 0-210.25-94.32-210.25-210.25 0-73.57 37.477-140.57 100.25-179.18 6.2148-3.8281 9.9961-10.598 9.9961-17.891l0.003907-530.68c0-55.141 44.855-99.996 99.996-99.996s99.996 44.855 99.996 99.996v530.69c0 7.2969 3.7812 14.062 9.9961 17.879 62.773 38.629 100.25 105.61 100.25 179.2 0.027344 115.92-94.293 210.24-210.23 210.24z"/>
 </g>
</svg>
