<?xml version="1.0" encoding="UTF-8"?>
<svg width="1200pt" height="1200pt" version="1.1" viewBox="0 0 1200 1200" xmlns="http://www.w3.org/2000/svg">
 <path d="m717.96 723.71c-31.715 20.699-67.129 31.129-105.5 31.129-7.043 0-14.195-0.34766-21.445-1.0547-71.844-6.8984-129.3-40.812-162.14-95.258-38.125-63.191-32.746-130.88-29.305-152.29 3.9609-23.746 14.328-58.824 25.234-85.285 10.223-24.91 48.613-100.2 64.188-125.84l4.2227-6.9375c7.0547-11.594 14.352-23.578 17.484-28.922 3.6719-6.3008 16.367-26.543 30.18-48.504 13.922-21.84 32.352-51.527 37.68-60.109 7.1172-11.914 15.336-24.695 17.23-26.797 1.5234-1.7266 3.9258-4.1406 7.1758-3.8398 4.5 0.19141 9.2383 4.5977 18.758 17.41 18.574 24.973 52.812 72.613 61.055 84.961 18.59 27.887 62.746 104.12 76.199 131.55 7.8242 15.793 9.5742 21.625 7.5117 24.949-1.332 2.1602-3.9102 2.4102-5.7227 2.4102-5.1719 0-7.3906-3.625-20.449-28.789-14.555-28.223-51.371-91.836-67.922-117.37-8.0742-12.301-48.863-69.168-64.871-90.156l-4.1641-5.4492-21.59 34.906c-11.16 18.336-26.062 42.301-34.98 56.617l-3.0586 4.9336c-63.012 100.25-101.69 175.54-118.23 230.17-11.172 36.18-18.625 89.832-6.1094 131.75 9.3359 31.246 21.191 53.195 42.012 78.312 5.8438 7.0547 15.551 16.836 21.648 21.828 35.363 28.234 98.543 46.5 143.82 41.41 44.641-5.1719 84.504-24.215 118.46-56.578 18.59-17.867 27.793-29.965 37.859-49.754 16.859-33.359 22.355-71.039 16.332-111.97-5.5664-36.961-19.598-82.934-24.527-88.32-2.8086 3.2539-14.375 17.449-28.98 35.723l-1.5859 1.9688c-127.23 158.38-130.86 162.9-136.07 162.9-0.15625 0-0.3125-0.011719-0.46875-0.011719-3.793 0-14.363-8.7852-67.871-66.059-49.895-53.41-59.242-64.57-59.723-65.207-13.738-18.023 11.809-48.625 32.387-34.715 2.5195 1.7031 35.723 36.324 46.836 48.277 23.879 25.402 42.625 45.145 46.934 47.387 11.832-15.359 108.09-134.98 110.83-137.26 2.375-2.0156 5.5781-2.6641 8.3633-1.668 2.2812 0.81641 3.8398 2.6055 4.2461 4.8828 0.25391 1.3555 0.70703 3.8984-59.219 78.961-55.273 68.977-61.43 75.145-64.934 75.145-2.7344 0-7.9688-3.3594-47.438-45.613-20.809-22.262-30.574-33.637-50.039-54.816-7.8242-8.5078-23.195 2.7461-12.469 14.879 12.91 14.617 55.621 58.812 55.621 58.812 30.18 31.754 51.758 53.543 56.543 57.66 2.6055-2.9414 13.414-15.996 28.68-35.113 15.445-18.961 40.559-50.113 56.34-69.793 14.941-18.445 43.094-53.387 63.133-78.254l1.2969-1.6094c61.645-76.355 61.68-76.309 67.008-75.492 1.8008 0.25391 4.3672 0.83984 5.3047 3.1797 1.6797 4.1758-2.4258 10.848-20.879 34.008l-21.457 26.328 8.832 26.16c18.277 54.445 25.055 99.395 20.172 133.62-6.3125 45.852-23.746 80.605-56.508 112.66-19.043 18.691-22.176 21.223-41.914 33.953zm-159.57 220.98c9.2773 24.324 11.531 37.332 11.531 66.266 0.17969 28.078-1.7266 37.836-10.129 52.211-7.3672 12.574-14.652 15.852-37.094 16.727-2.8906 0.10938-5.8203 0.15625-8.7852 0.15625-60.254 0-134.38-19.824-205.11-55.031-37.703-18.602-75.758-46.512-116.32-85.344-39.637-37.934-71.723-87.695-95.352-147.88-16.715-42.637-25.441-76.633-33.336-129.9-7.6094-51.719-7.5-102.61 0.33594-155.61 3.1562-21.898 4.9922-27.504 10.922-33.254 6.0352-6.0352 15.434-6.5273 25.117-1.3086l4.8477 2.5547 1.7266-3.3359c1.4648-2.9297 4.8125-7.0078 7.6328-9.2656l0.011719-0.011719c4.2969-3.3477 7.1172-4.0195 14.41-3.2656 7.4648 0.71875 10.141 2.0625 15.949 8.0391 4.1055 4.4648 7.8477 11.062 9.793 17.258 0.73047 2.293 2.2695 7.0938 3.0469 7.4141 0-0.011719 0.23828 0.058593 1.1406-0.25391 2.3047-0.75781 6.9961-1.5 10.703-1.2734h0.011719c5.8906 0 8.9141 1.957 14.965 7.8359 11.207 11.027 15.121 19.453 26.195 56.316 19.465 65.207 37.859 115.7 50.473 138.54 2.1602 3.8047 4.4297 8.0156 5.8672 10.691l1.1289 2.1016c3 5.8438 34.355 30.254 63.602 48.238 10.754 6.6602 28.812 18.086 40.066 25.234 10.668 6.793 29.746 18.348 42 25.188 23.016 12.961 42.758 26.207 66 44.281 38.453 29.953 65.633 63.395 78.641 96.672zm-42.934 120.01c18.336-0.15625 22.297-0.64844 26.496-3.2891 20.328-12.527 18.07-81.707-4.0547-125.47-18.145-35.941-68.051-82.008-124.21-114.62-21.504-12.742-31.668-18.938-82.199-50.652-33.254-20.977-57.371-39.434-107.57-82.297-1.0547-0.91016-3.9492-2.207-6.457-2.8672-2.0391-0.51562-4.2617 0.023437-6.2031 1.5352-2.9883 2.3047-4.8359 6.4219-4.8359 10.715 0 15.516 13.68 48.926 29.855 72.949 18.887 27.828 62.184 72.637 92.641 95.855 19.824 15.047 22.355 17.328 22.355 23.746 0 2.9648-0.82812 5.0039-2.5312 6.2383-3.1562 2.2578-8.9141 1.6211-21.301-2.4727-34.164-11.566-79.859-42.121-104.05-69.539-26.438-29.844-50.027-68.051-64.738-104.82-17.281-43.738-26.699-82.223-32.496-132.88-3.4922-30.121-5.1602-41.891-8.8203-56.855-3.8398-16.008-14.734-38.664-20.82-43.297l-0.035157-0.035156c-2.2695-1.8242-5.3984-2.9297-8.125-2.9297-0.61328 0-1.2109 0.058593-1.7773 0.17969-0.76953 0.16797-2.1484 0.58984-2.7109 1.6797-1.1406 2.1719-4.1875 16.176-9.0117 48.516-3.6016 25.078-2.6055 86.977 1.8711 116.2 8.7109 59.27 17.629 93.539 36.695 141.05 15.602 39.406 38.172 78.695 61.934 107.75 12.348 14.914 41.879 43.715 61.957 60.406 38.484 32.113 64.645 47.641 116.62 69.254 29.594 12.266 43.414 16.789 77.797 25.477 31.695 8.0039 54.398 10.859 83.727 10.488zm-275.14-381.56c-0.97266-2.3633-2.3047-5.5547-3.9258-9.2148-12.254-28.777-22.129-57.18-35.195-101.27-14.734-49.812-17.172-55.883-25.957-64.836-6.6016-6.4453-7.7539-6.0586-11.113-3.5898-2.1484 1.5586-2.2695 1.6445 0.52734 16.633 8.1367 44.879 29.207 116.21 41.762 141.3 4.4141 8.4844 4.8359 8.3516 6.9375 7.7656 0.57422-0.14453 1.1992-0.20312 1.8359-0.20312 7.2969 0 18.637 8.293 23.461 12.121 0.58594 0.47656 1.1523 0.91016 1.668 1.293zm-48.059-16.355c-3.3945-7.5-8.8672-21.109-12.301-30.098-6.7578-18.203-24.574-86.184-28.883-110.24-3.9961-21.961-11.734-45.023-16.906-50.352l-0.011719-0.023438c-2.6172-2.7617-5.0625-4.1758-7.2617-4.1758-1.9062 0-3.8047 1.0312-5.7852 3.1445-5.8438 6.1562-5.7461 11.281 0.48047 23.879 7.9336 15.863 12.191 34.262 17.555 75.719 8.0273 63.203 15.527 94.402 33.457 139.14 23.016 57.145 61.57 107.91 103.12 135.84 13.836 9.1094 26.09 16.512 33.48 20.531-1.7266-1.5703-3.875-3.4805-6.5039-5.7461-15.828-13.285-42.996-41.219-60.539-62.242-36.684-43.98-57.574-97.234-46.57-118.7 2.1406-4.2422 2.1914-4.3242-3.3281-16.672zm949.25-67.309c-3.9492 136.68-54.035 263.84-133.99 340.2-40.547 38.832-78.613 66.758-116.33 85.344-70.715 35.207-144.85 55.031-205.09 55.031-2.9648 0-5.8906-0.046875-8.7852-0.14453-16.273-0.70703-20.148-1.4297-25.906-4.8477-7.6797-4.9336-14.41-15.422-18.527-28.801-4.0938-12.984-4.0078-55.703 0.14453-73.703 3.8984-17.363 13.332-41.258 21.023-53.23 8.7969-14.102 29.531-39.348 41.855-50.953 23.172-21.277 58.621-46.668 90.324-64.668 12.266-6.8281 31.355-18.383 42.012-25.188 11.258-7.1523 29.328-18.574 40.066-25.234 29.258-17.977 60.613-42.383 63.59-48.191l1.1523-2.1484c1.4414-2.6758 3.707-6.875 5.8789-10.715 12.602-22.812 30.996-73.309 50.461-138.52 11.074-36.863 15-45.289 26.184-56.305 6.457-6.2656 9.6016-7.9219 16.246-7.8828 3.4453 0 7.3789 0.63672 9.457 1.3086 0.99609 0.33594 1.1406 0.25391 1.1641 0.25391 0.79297-0.39453 2.2578-4.8711 3.0352-7.2734 3.2539-10.441 11.52-21.492 18.086-24.109 11.496-4.7539 24-0.023438 29.711 11.242l1.7266 3.3242 4.8711-2.5664c9.6602-5.2188 19.055-4.7266 25.117 1.332 5.9141 5.7344 7.7539 11.328 10.906 33.238 5.1641 35.266 6.6406 59.664 5.6211 93.203zm-295.43 429.25c51.973-21.625 78.133-37.152 116.61-69.254 34.895-28.922 62.41-58.379 81.793-87.539 40.945-61.488 65.242-129.85 78.793-221.66 4.4883-29.23 5.4844-91.129 1.8711-116.22-4.8242-32.328-7.8711-46.332-9.0117-48.492v-0.011719c-0.5625-1.0938-1.9453-1.5117-2.7109-1.6797-3.0352-0.63672-7.1055 0.51562-9.8984 2.7461-6.1328 4.6797-17.016 27.324-20.855 43.332-3.6602 14.965-5.3281 26.746-8.8203 56.867-5.7969 50.652-15.215 89.137-32.496 132.85-14.711 36.781-38.316 74.988-64.754 104.83-24.191 27.422-69.898 57.973-104.04 69.527-12.406 4.0938-18.168 4.7539-21.312 2.4844-1.7031-1.2344-2.5312-3.2656-2.5312-6.2383 0-6.4219 2.5195-8.7109 22.355-23.746 30.457-23.23 73.754-68.027 92.652-95.855 16.176-24.023 29.855-57.434 29.855-72.949 0-4.2852-1.8477-8.3984-4.8359-10.715-1.4648-1.1406-3.0586-1.7266-4.6445-1.7266-0.52734 0-1.0547 0.070312-1.5703 0.20312-2.4961 0.66016-5.375 1.9453-6.4219 2.8438-50.219 42.875-74.34 61.332-107.58 82.309-47.977 30.098-59.496 37.199-82.188 50.641-56.172 32.629-106.08 78.695-124.22 114.64-22.129 43.766-24.383 112.95-4.0664 125.46 4.2227 2.6641 8.1836 3.1562 26.508 3.3008 29.352 0.55078 52.02-2.4961 83.723-10.5 34.383-8.6445 48.195-13.168 77.801-25.445zm232.85-553.68c-1.957-2.0742-3.8516-3.0977-5.7461-3.0977-0.51562 0-1.043 0.070313-1.5703 0.23828-8.375 2.4727-16.848 22.754-22.668 54.266-4.3086 24.047-22.129 92.027-28.883 110.21-3.4453 9.0117-8.9141 22.621-12.312 30.121-5.5078 12.348-5.4727 12.434-3.2773 16.668 3.5625 6.9727 3.6953 21.289 0.3125 34.836-3.4336 12.684-15.625 38.711-26.113 55.727-14.891 23.797-54.406 67.727-81.324 90.395-2.6289 2.2578-4.7773 4.1758-6.5039 5.7461 7.3789-4.0195 19.645-11.438 33.492-20.543 41.531-27.91 80.074-78.695 103.11-135.83 17.93-44.734 25.43-75.938 33.457-139.13 5.3633-41.461 9.625-59.855 17.555-75.742 6.2109-12.582 6.3086-17.719 0.47656-23.863zm-43.047 29.211-0.011719-0.023437c-1.3555-1.0078-2.3516-1.668-3.5039-1.668-1.6797 0-3.6836 1.4141-7.6211 5.2578-8.7734 8.9297-11.207 14.988-25.945 64.824-13.066 44.102-22.934 72.492-35.184 101.26-1.6328 3.6953-2.9883 6.9102-3.9609 9.3242 0.57422-0.42187 1.2109-0.88672 1.8945-1.4023 5.1367-4.1406 17.941-13.715 25.02-11.902 2.1367 0.57422 2.5938 0.73047 7.0078-7.7773 12.539-25.078 33.613-96.395 41.746-141.27 2.8164-15.008 2.6953-15.09 0.55859-16.625z"/>
</svg>
