<?xml version="1.0" encoding="UTF-8"?>
<svg width="1200pt" height="1200pt" version="1.1" viewBox="0 0 1200 1200" xmlns="http://www.w3.org/2000/svg">
 <g fill-rule="evenodd">
  <path d="m851.6 259.92c-0.55469 0.011719-1.1016 0.12109-1.6172 0.32812l-11.723 4.6914-20.344 7.8242v-0.003907c-0.78125 0.30078-1.4648 0.80859-1.9805 1.4688l-5.4844 7.0547 0.003906-0.003906c-0.79688 1.0234-1.1211 2.332-0.90234 3.6055 0.22266 1.2734 0.96875 2.3945 2.0586 3.0898l2.8164 1.793-8.6758 6.0742-7.75-0.64844v-0.003906c-1.1797-0.097656-2.3516 0.26562-3.2734 1.0117l-10.289 8.3633-12.273-5.8125c-1.3047-0.62109-2.8242-0.58984-4.1055 0.082031l-14.891 7.8359h0.003906c-1.9922 1.0469-2.9297 3.3828-2.2188 5.5156l2.7812 8.3398-8.2969 5.2383-7.6367-9.9844c-0.62891-0.82422-1.5234-1.4141-2.5352-1.6641l-15.668-3.918c-1.3711-0.34375-2.8242-0.035156-3.9414 0.83594-1.1133 0.87109-1.7656 2.207-1.7656 3.6211v1.6719l-7.3945 3.1719-13.633 0.46875 5.3164-9.3047v-0.003906c1.1484-2.0078 0.62109-4.5586-1.2305-5.9492l-6.2695-4.7031c-0.4375-0.32812-0.93359-0.57812-1.4609-0.73047l-13.32-3.918h0.003906c-1.0859-0.32031-2.25-0.22656-3.2734 0.25781l-16.336 7.7773-21.031 8.5664c-1.5781 0.64453-2.668 2.1133-2.832 3.8086l-12.871 0.55859c-1.457 0.0625-2.7969 0.81641-3.6133 2.0273-0.8125 1.207-1.0039 2.7305-0.51172 4.1055l1.0312 2.8906-3.6445-0.91406-5.3984-2.9453 0.44531-3.9922-0.003906 0.003906c0.19531-1.75-0.62891-3.457-2.1172-4.3906-1.4922-0.9375-3.3867-0.94141-4.8789-0.007813l-25.074 15.668c-0.16406 0.10547-0.32422 0.21875-0.47266 0.33984l-16.625 13.602-21.188 7.5703c-0.60547 0.21484-1.1562 0.55078-1.6211 0.99219l-15.672 14.887c-0.14453 0.14062-0.28125 0.28906-0.41016 0.44922l-18.344 22.746-8.2109 0.63672v-0.003907c-2.3906 0.18359-4.2383 2.1797-4.2383 4.5781v8.9727l-9.0078-1h0.003907c-1.3008-0.14453-2.5977 0.27344-3.5703 1.1445s-1.5273 2.1133-1.5312 3.418v10.188c0 1.4922 0.72656 2.8906 1.9453 3.75l7.2578 5.125-3.6562 1.9688h0.003907c-1.6953 0.91406-2.6406 2.7891-2.3672 4.6953l1.3008 9.0977-1.3281-0.4375-2.3672-2.3672v-0.003906c-0.34766-0.34766-0.75391-0.63672-1.1914-0.85547l-2.4688-1.2344-3.6367-7.9336h-0.003906c-0.625-1.3633-1.875-2.3359-3.3516-2.6055l-8.1367-1.4805-10.906-4.5117h-0.003906c-1.9102-0.79297-4.1094-0.21094-5.3789 1.4219l-5.4844 7.0508c-0.39453 0.50391-0.67578 1.0859-0.83203 1.707l-2.125 8.5-6.4961 8.6602c-0.85156 1.1367-1.1289 2.5977-0.75781 3.9648l1.1758 4.3086c0.17578 0.64844 0.49219 1.25 0.92578 1.7578l2.1055 2.4883-1.7617 2.707-8.668-0.59766v0.003906c-1.457-0.10156-2.875 0.5-3.8203 1.6133l-4.3086 5.0938c-0.32031 0.37891-0.57422 0.80469-0.75781 1.2617l-3.1367 7.8359c-0.55078 1.3711-0.40234 2.9219 0.39062 4.168l3.8242 6.0078-2.1172 2.9648h-0.003906c-1.2852 1.8047-1.1016 4.2695 0.44141 5.8633-0.49219 0.19922-0.94531 0.48047-1.3438 0.83594l-3.918 3.5234c-1.168 1.0508-1.7148 2.6211-1.457 4.168l0.97266 5.8281-5.4766 14.406-4.3516-1.3398-6.5234-11.27 3.3594-7.2812 4.5312-4.5312 2.2852-0.22656 0.003906 0.003906c1.5508-0.15234 2.9141-1.0859 3.625-2.4688 0.71484-1.3867 0.67188-3.0391-0.10547-4.3906l-6.2109-10.789-0.32031 0.64062c0.55469-1.1094 0.63672-2.3984 0.23047-3.5703l-5.332-15.234-1.1133-8.1602h-0.003906c-0.089844-0.67969-0.33203-1.3281-0.70703-1.9023l-7.4766-11.387v-5.2891c-0.003906-0.15234-0.011718-0.30469-0.03125-0.46094-0.050781-0.45703-0.17187-0.90234-0.35937-1.3242-0.12109-0.28125-0.27344-0.54688-0.44922-0.79688-0.085938-0.125-0.18359-0.24609-0.28125-0.36328-0.40234-0.46484-0.89453-0.84375-1.4453-1.1133-0.27734-0.13672-0.56641-0.24219-0.85938-0.32031-0.14844-0.039063-0.29688-0.070313-0.44922-0.097656-0.15234-0.03125-0.30469-0.058594-0.45703-0.074219-0.30859-0.007813-0.61328 0.019531-0.91406 0.074219-0.60938 0.085937-1.1953 0.29687-1.7188 0.61328-0.13281 0.078125-0.25781 0.16406-0.37891 0.25781-0.24609 0.18359-0.47266 0.39062-0.67969 0.61719-0.10156 0.11328-0.19531 0.23438-0.28516 0.35547-0.17969 0.25-0.33594 0.51562-0.46094 0.79297-0.19141 0.41797-0.31641 0.86328-0.375 1.3203-0.019531 0.15234-0.035156 0.30469-0.039062 0.46094v0.074219 13.852l-0.85547 7.707-0.23047 0.10547h-3.9023l-4.6484-7.5508-1.1641-3.4922v-7.875c0-1.4648-0.69531-2.8398-1.875-3.7031l-5.875-4.3086c-0.52734-0.38672-1.1289-0.65625-1.7695-0.78906l-5.4844-1.1562-2.4961-4.1602c-1.2617-2.0977-3.9531-2.8359-6.1094-1.6758l-0.76953-1.5391c-0.95703-1.9141-3.1094-2.9141-5.1875-2.4102l-4.9727 1.2031v-0.003906c-0.95703 0.23438-1.8164 0.76953-2.4492 1.5273l-13.852 16.621v-0.003907c-0.75 0.89844-1.1289 2.0508-1.0547 3.2188l1.1094 18.285c0.14453 2.4258 2.1523 4.3125 4.582 4.3125h2.5664l0.62891 5.3633c0.17578 1.4805 1.0547 2.7812 2.3633 3.4961l5.3281 2.9062 1.3828 1.6602-2.2539 1.2148-0.003907-0.003906c-1.0273 0.55469-1.8086 1.4805-2.1797 2.5898l-2.332 6.9961-16.637 13c-0.84766 0.66406-1.4375 1.6055-1.6641 2.6562l-3.082 14.375-5.8906 6.8711h0.003906c-1.0508 1.2227-1.3828 2.9102-0.87109 4.4414l1.3008 3.8945-4.7969 28.234c-0.10156 0.60547-0.078125 1.2227 0.0625 1.8203l1.9531 8.3047-5.25 19.949c-0.14062 0.52734-0.18359 1.0781-0.12891 1.625l1.6602 16.621 0.003906-0.003906c0.007813 0.09375 0.019531 0.18359 0.035156 0.27344l4.1797 26.121-4.2031 7.4688 0.003906 0.003906c-0.38672 0.6875-0.58984 1.4609-0.58984 2.25v22.16c0 1.6289 0.85938 3.1328 2.2617 3.957l9.418 5.5391v0.003906c0.50781 0.30078 1.0703 0.5 1.6562 0.58594l14.957 2.2188h0.003906c0.1875 0.039062 0.37891 0.0625 0.57031 0.074218l25.488 0.55078v0.003906c0.25781-0.003906 0.51562-0.03125 0.76953-0.078125l29.918-4.4336h0.003906c1.0117-0.14844 1.9453-0.63281 2.6523-1.375l10.988-11.539 8.2109-7.6641v0.003906c1.2773-1.1914 1.7656-3.0039 1.2656-4.6797l-3.3242-11.082v0.003906c-0.15625-0.51953-0.40234-1.0039-0.72656-1.4375l-5.8242-7.7617-0.36328-6 24.148 17.984h0.003906c0.55859 0.41797 1.207 0.69922 1.8945 0.82812l23.891 4.4805 5.8203 18.43c0.28906 0.91797 0.85547 1.7188 1.625 2.293l4.0664 3.0508c-1.9141 1.2891-2.5703 3.793-1.543 5.8555l7.2031 14.406c0.77734 1.5547 2.3672 2.5391 4.1094 2.5391h7.7578c0.16406 0.007813 0.33203 0.007813 0.49609 0l-1.125 5.6172c-0.082032 0.41797-0.10938 0.84766-0.074219 1.2773l2.7695 33.797 0.003906-0.003907c0.023438 0.32813 0.085938 0.64844 0.18359 0.96484 0 0 2.9102 9.5547 5.8867 19.387 1.4883 4.9141 2.9961 9.8984 4.1602 13.789 1.168 3.8867 2.1055 7.1484 2.082 7.0469 0.40234 1.6016 0.92969 2.75 1.8008 4.9648s1.9648 4.9258 3.043 7.5703c2.1562 5.2812 4.2383 10.281 4.2383 10.281l-0.003906-0.003907c0.50781 1.2148 1.5117 2.1562 2.7578 2.5781 1.2461 0.42578 2.6133 0.29687 3.7578-0.35938l11.637-6.6484v0.003906c0.25781-0.15234 0.50391-0.32422 0.72656-0.52344l8.3125-7.2031v0.003906c0.92969-0.80859 1.5-1.9531 1.5742-3.1836l0.49609-7.9961 3.5117-7.5234 0.003906-0.003906c0.34375-0.73438 0.48438-1.5469 0.41016-2.3555l-1.2812-14.102 1.9648-0.35547c0.76562-0.14062 1.4805-0.47266 2.0859-0.96484l5.1484-4.2109 5.4414-0.90625c0.94531-0.16016 1.8164-0.60937 2.4922-1.2852l2.5469-2.5469 17.367-13.156 14.156-4.1953c1.1016-0.32422 2.043-1.0547 2.6328-2.0391l3.3242-5.5391c0.55859-0.92969 0.76953-2.0273 0.59766-3.0977l2.7031-1.3516 19.484-0.52734-0.003906-0.003906c1.0703-0.027344 2.0938-0.42969 2.8984-1.1328l2.5898-2.2695 2.6172 13.535 0.003907 0.003906c0.19922 1.0273 0.74609 1.9531 1.543 2.6289l6.4453 5.457 4.2617 9 1.4258 9.9805-1.9492 6.8125h0.003907c-0.69922 2.4375 0.71484 4.9805 3.1523 5.6758l7.7578 2.2188v-0.003906c1.2305 0.35547 2.5547 0.17578 3.6484-0.48828l9.4688-5.7656 2.7227 3.6289-0.83984 5.875c-0.13281 0.92578 0.019531 1.8672 0.4375 2.7031l4.3125 8.6289 1.7344 4.7656-0.39062 2.7383c-0.11719 0.82031-0.007813 1.6523 0.30859 2.418l1.8555 4.4609-1.5117 2.4219c-0.47266 0.75391-0.71484 1.625-0.69922 2.5156l0.35156 19.102c0.027344 1.3633 0.65625 2.6484 1.7227 3.5l10.625 8.5 7.4258 25.254h0.003906c0.32031 1.0977 1.043 2.0352 2.0195 2.6289l21.938 13.32c1.0508 0.63672 2.3086 0.82422 3.4961 0.52734l3.1367-0.78125c1.3047-0.32422 2.4023-1.207 3-2.4141 0.59766-1.207 0.63672-2.6133 0.10938-3.8477l-4.4336-10.344-1.4922-13.426v-0.003906c-0.089843-0.78906-0.37891-1.5391-0.84375-2.1836l-10.184-14.105-0.003907 0.003907c-0.38281-0.53125-0.875-0.97266-1.4414-1.3008l-9.0039-5.1445-0.87109-6.375v0.003906c-0.11719-0.87891-0.48828-1.6992-1.0625-2.3711l-3.1992-3.7305 3.4062-14.984c0.074218-0.33594 0.11328-0.67578 0.11328-1.0195v-0.15234c0.9375 1.7148 2.8555 2.6484 4.7812 2.3281l5.6992-0.94922 3.7539 9.8125c0.4375 1.1523 1.3203 2.0742 2.4492 2.5703l9.7852 4.2812v5.6172c0 1.4727 0.71094 2.8594 1.9062 3.7227 1.1992 0.86328 2.7344 1.0977 4.1367 0.63281l9.4062-3.1328v-0.003906c1.6484-0.55078 2.8438-1.9844 3.0898-3.707l0.41406-2.8906 20.301-8.4023c1.7188-0.71094 2.8398-2.3867 2.8359-4.2422v-15.672c0-0.22266-0.015624-0.44922-0.050781-0.67187l-3.1328-21.156h-0.003907c-0.23047-1.5781-1.2656-2.918-2.7305-3.5469l-9.7383-4.1719-9.8906-14.508 1.6016-7.4805 11.324-9.3281 2.9883-0.8125 1.3359 6.2266-0.003907-0.003906c0.33203 1.5508 1.4414 2.8164 2.9297 3.3555 1.4922 0.53906 3.1523 0.27344 4.3984-0.70703l10.562-8.2969 41.059-19.367v-0.003906c0.97656-0.46094 1.7617-1.2539 2.2148-2.2383l25.855-56.414c0.47266-1.0352 0.54688-2.2109 0.20313-3.2969l-4.6992-14.887c-0.097657-0.3125-0.23047-0.60938-0.39062-0.89453l-12.539-21.941c-0.75391-1.3203-2.1133-2.1836-3.6328-2.3008l-2.7266-0.21094 6.9648-11.441 6.918-9.2266v0.003906c1.043-1.3945 1.2109-3.2539 0.43359-4.8086-0.77734-1.5547-2.3672-2.5391-4.1055-2.5391h-12.539c-1.2852 0-2.5117 0.53906-3.3828 1.4883l-3.5078 3.8242-0.54688-1.5078c-0.65625-1.8125-2.3828-3.0195-4.3125-3.0195h-1.293l-0.015624-0.19531 0.49609-0.082032 0.003907-0.003906c1.1875-0.19922 2.2461-0.85547 2.957-1.8281l8.4336-11.598 0.56641 3.3828h-0.003907c0.25391 1.5195 1.2539 2.8125 2.6602 3.4375 1.4062 0.62891 3.0312 0.50781 4.332-0.31641l7.6211-4.8477 6.4805-0.40625v4.1328l-0.72266 4.3281v-0.003906c-0.23438 1.4102 0.19922 2.8516 1.1758 3.8945 0.98047 1.043 2.3867 1.5703 3.8086 1.4297l5.4102-0.54297 1.0117 1.2148-0.4375 2.625v-0.003906c-0.18359 1.1055 0.042969 2.2383 0.63672 3.1875l3.4922 5.5859 2.1797 10.18c0.32422 1.5117 1.3828 2.7539 2.8164 3.3164 1.4375 0.5625 3.0625 0.36328 4.3203-0.52344l13.32-9.4023v-0.003907c1.2188-0.85938 1.9453-2.2578 1.9453-3.75v-10.184c0-0.33594-0.039063-0.66797-0.10938-0.99609l-1.5664-7.0547c-0.21875-0.97656-0.75-1.8594-1.5156-2.5078l-9.7891-8.2852-4.5586-6.082 5.5117-6.6133h-0.007812c0.53516-0.64062 0.88672-1.4141 1.0117-2.2422l1.5039-9.7695 3.543-10.125 2.2891 1.2695v0.003906c1.793 0.99219 4.0273 0.67969 5.4766-0.76953l7.8359-7.8359c0.82422-0.82422 1.3047-1.9336 1.3438-3.0977l1.5664-49.363v-0.003907c0.015625-0.53906-0.0625-1.082-0.23438-1.5977l-4.7031-14.102c-0.050781-0.16016-0.11328-0.32031-0.1875-0.47656l-4.6992-10.184c-0.050781-0.10938-0.10547-0.21875-0.16797-0.32422l-7.0508-12.535v-0.003906c-0.65625-1.1641-1.7891-1.9883-3.1016-2.25l-7.8359-1.5664c-2.2227-0.44531-4.4414 0.80078-5.2148 2.9297l-1.2852 3.5312-5.4805-3.082v-9.4492l4.3242-24.512 15.91-12.449 7.7227-2.1094 0.003906 0.003906c1.9961-0.54297 3.3789-2.3555 3.3828-4.4258v-3.1328c0-0.125-0.007812-0.25-0.015624-0.37109l-1.2148-15.156c1.2344 0.64063 2.6875 0.6875 3.957 0.13281 1.2734-0.55859 2.2266-1.6602 2.5898-3l1.2656 6.0117v0.003906c0.019531 0.085938 0.039062 0.17578 0.0625 0.26172l4.7031 17.238c0.003906 0.027344 0.011719 0.050781 0.015625 0.078125l1.5664 5.4844c0.17969 0.625 0.49219 1.207 0.91406 1.707l21.938 25.859c0.21484 0.25 0.45313 0.47266 0.71484 0.67188l13.32 10.188c1.6016 1.2266 3.8164 1.2617 5.457 0.089844s2.3242-3.2773 1.6875-5.1914l-6.2109-18.637-2.3086-9.2305c-0.007813-0.03125-0.015625-0.066406-0.023438-0.097656l-2.3516-8.6172c-0.17969-0.65625-0.5-1.2656-0.94531-1.7812l-3.5938-4.1953v-6.1367c0-1.8555-1.1133-3.5273-2.8242-4.2383l-8.0273-3.3438-6.9062-11.301 3.5664-17.828c0.12891-0.64062 0.11719-1.3047-0.03125-1.9414l-5.4844-23.508c-0.33203-1.4219-1.3203-2.6016-2.6641-3.1758l-15.062-6.4531-2.0117-3.4492 9.0938-3.5352 0.003906-0.003907c1.5234-0.59375 2.6172-1.9531 2.8711-3.5703s-0.375-3.2461-1.6484-4.2773l-16.457-13.32c-0.83984-0.67969-1.8945-1.043-2.9766-1.0234zm-0.70703 9.8555 8.2109 6.6484-6.7266 2.6172-0.003906-0.003906c-1.25 0.48828-2.2266 1.5-2.668 2.7656-0.44531 1.2695-0.30859 2.668 0.36719 3.8281l5.4844 9.4023c0.49609 0.85156 1.2539 1.5195 2.1562 1.9102l14.32 6.1367 4.7305 20.277-3.7227 18.613v-0.003906c-0.22266 1.1328-0.015625 2.3086 0.58594 3.293l8.6172 14.105c0.50781 0.82812 1.2617 1.4727 2.1523 1.8438l6.5781 2.7383v4.7773c0.003907 1.0977 0.39453 2.1562 1.1055 2.9883l4.0273 4.7031 2.0664 7.5742 2.3398 9.3555h0.003906c0.027344 0.11328 0.058594 0.22656 0.097657 0.33984l1.543 4.6289-1.0586-0.80859-20.977-24.727-1.2852-4.5078-4.6602-17.082-3.1055-14.754-0.003907 0.003906c-0.10547-0.5-0.29297-0.98047-0.55469-1.418l-4.7031-7.8359c-1-1.6641-2.9414-2.5195-4.8477-2.1367-1.9023 0.38672-3.3594 1.9258-3.6367 3.8516l-0.74609 5.2227c-0.55078 0.28906-1.0352 0.69141-1.4258 1.1758l-6.2695 7.8359c-0.73047 0.91406-1.0859 2.0703-0.99219 3.2344l1.5078 18.859-5.1914 1.418c-0.58984 0.16016-1.1406 0.4375-1.6211 0.81641l-18.02 14.105v-0.003906c-0.89453 0.69922-1.4961 1.7031-1.6914 2.8203l-4.7031 26.641v-0.003907c-0.046875 0.26562-0.070312 0.53125-0.066406 0.80078v12.539-0.003906c0 1.6602 0.89453 3.1914 2.3398 4.0039l12.539 7.0547-0.003906-0.003906c1.1758 0.66406 2.582 0.77344 3.8477 0.30469s2.2578-1.4688 2.7188-2.7383l1.7852-4.9102 1.9023 0.37891 5.9297 10.539 4.5195 9.7891 4.3633 13.082-1.4844 46.727-4.1016 4.1016-4.0234-2.2344h-0.007812c-1.1836-0.65625-2.5938-0.75781-3.8594-0.27734-1.2656 0.48438-2.2539 1.5-2.7031 2.7773l-5.4844 15.672c-0.09375 0.26562-0.16016 0.53906-0.20312 0.81641l-1.3711 8.9258-7.0195 8.4219h-0.003907c-1.3594 1.6328-1.4219 3.9922-0.14453 5.6914l7.0508 9.4023v0.003906c0.20703 0.27344 0.44531 0.52344 0.70703 0.74609l9.0078 7.6172 1.1211 5.0508v7.3008l-5.6953 4.0195-0.89063-4.1719-0.003906 0.003907c-0.11328-0.51953-0.3125-1.0156-0.59375-1.4688l-2.9961-4.7969 0.5-2.9844h-0.003906c0.21875-1.3203-0.14453-2.668-1-3.6953l-3.918-4.7031h-0.003907c-0.97266-1.168-2.4648-1.7773-3.9844-1.625l-2.0039 0.19531v-8.9531h0.003906c0-1.2656-0.52344-2.4766-1.4492-3.3477-0.92188-0.86719-2.1641-1.3125-3.4297-1.2344l-12.539 0.78516c-0.77344 0.046875-1.5234 0.29297-2.1758 0.71094l-2.7656 1.7617-0.42969-2.5586v-0.003906c-0.24219-1.4492-1.1602-2.6914-2.4727-3.3516l-3.1328-1.5664h-0.003906c-2.0078-1.0039-4.4453-0.40625-5.7656 1.4062l-11.43 15.719-2.8477 0.47656c-2.3711 0.39453-4.0391 2.5508-3.8203 4.9453l0.78516 8.6172c0.21484 2.3672 2.1953 4.1758 4.5703 4.1797h2.2695l2.0352 5.5938c0.55078 1.5078 1.8438 2.6211 3.418 2.9336 1.5742 0.3125 3.1992-0.21875 4.2812-1.3984l7.2539-7.9141h1.3359l-1.543 2.0547c-0.089844 0.12109-0.17188 0.24219-0.25 0.37109l-10.969 18.023c-0.82813 1.3633-0.89063 3.0586-0.16016 4.4805 0.72656 1.4219 2.1406 2.3594 3.7305 2.4844l7.7578 0.59766 11.086 19.398 4.0195 12.73-24.418 53.285-40.012 18.871c-0.3125 0.14844-0.60938 0.32812-0.87891 0.54297l-5.1836 4.0742-0.80859-3.7773c-0.26562-1.2344-1.0273-2.3047-2.1055-2.9609s-2.3789-0.83984-3.5938-0.50781l-8.6172 2.3477-0.003906 0.003906c-0.625 0.17188-1.207 0.47266-1.707 0.88672l-13.32 10.969c-0.80078 0.66016-1.3555 1.5703-1.5742 2.582l-2.3477 10.969c-0.26562 1.2305-0.011719 2.5117 0.69531 3.5508l11.754 17.238c0.49219 0.72266 1.1797 1.2891 1.9844 1.6328l8.6133 3.6914 2.707 18.285v12.266l-19.887 8.2266c-1.5 0.62109-2.5586 1.9883-2.7891 3.5938l-0.38281 2.6758-0.66406 0.21875v-2.25h-0.003907c0-1.8242-1.0781-3.4766-2.75-4.207l-10.773-4.7148-4.4062-11.523h-0.003906c-0.77734-2.0391-2.8867-3.2461-5.0391-2.8867l-4.6211 0.76953-0.25-2.2344c-0.25781-2.3242-2.2227-4.082-4.5625-4.0859h-7.8359c-2.5352 0-4.5898 2.0586-4.5898 4.5938v8.8867l-3.8047 16.734c-0.32422 1.418 0.046875 2.9062 0.99219 4.0078l3.8203 4.457 0.99219 7.2773c0.03125 0.21094 0.074219 0.42188 0.13672 0.62891l-8.2734-6.6172-0.28516-15.586 2.0469-3.2734c0.78906-1.2617 0.91797-2.8281 0.34375-4.1992l-2.2852-5.4844 0.375-2.6289h0.003906c0.10547-0.75 0.027344-1.5117-0.23438-2.2188l-2.2188-6.0938 0.003906-0.003906c-0.058593-0.16406-0.12891-0.32422-0.20703-0.48438l-3.793-7.582 0.90234-6.3359h0.003906c0.17188-1.207-0.14062-2.4297-0.87109-3.4062l-6.6484-8.8633c-1.1875-1.582-3.25-2.2266-5.1289-1.6016-1.875 0.625-3.1406 2.3789-3.1367 4.3555v-2.0273l-8.8203 5.3711-1.4102-0.40234 0.95703-3.3398-0.003907 0.003907c0.17578-0.62109 0.22266-1.2734 0.12891-1.9141l-1.6641-11.637 0.003906 0.003906c-0.066406-0.45703-0.19922-0.90234-0.39453-1.3164l-4.9844-10.527h-0.003906c-0.28125-0.58984-0.68359-1.1172-1.1836-1.5391l-5.9688-5.0508-3.0195-15.586h0.003906c-0.38281-1.9766-2.0039-3.4688-4.0039-3.6914l-4.9844-0.55859c-1.2812-0.14453-2.5625 0.25781-3.5312 1.1094l-3.1875 2.7891-18.848 0.50781 0.003906-0.003906c-0.67188 0.019532-1.332 0.18359-1.9297 0.48438l-6.6484 3.3242v0.003906c-1.8047 0.89844-2.8086 2.8711-2.4766 4.8594l0.27734 1.6523-1.5352 2.5586-13.246 3.9219v0.007812c-0.53125 0.15625-1.0312 0.40625-1.4688 0.73828l-18.285 13.852c-0.16797 0.12891-0.32422 0.26562-0.47266 0.41797l-1.7305 1.7266-5.1953 0.86719h-0.003906c-0.78906 0.13281-1.5312 0.46875-2.1523 0.97656l-5.1758 4.2344-4.9258 0.89453c-2.3359 0.42578-3.9648 2.5664-3.75 4.9336l1.5508 17.051-3.3555 7.1875c-0.24219 0.51953-0.38672 1.082-0.42578 1.6562l-0.43359 6.9414-6.5156 5.6484-6.7109 3.8359c-0.79688-1.9258-1.0977-2.6328-2.2305-5.4062-1.0703-2.6211-2.1562-5.3125-3-7.457-0.84375-2.1484-1.5586-4.3281-1.4375-3.8359-0.30078-1.207-1.0234-3.5547-2.1953-7.457s-2.6797-8.8906-4.168-13.812c-2.9062-9.5977-5.6094-18.477-5.7461-18.926l-2.6758-32.664 3.1992-15.988 0.003906-0.003907c0.34375-1.7344-0.33594-3.5156-1.75-4.5742l-2.2188-1.6602c-0.99609-0.75-2.2578-1.0586-3.4883-0.85938-1.2305 0.19922-2.3281 0.89063-3.0391 1.918l-3.6172 5.2227h-2.5117l-2.8203-5.6406 2.4688-0.14453v0.003907c1.9219-0.11328 3.5703-1.418 4.125-3.2617 0.55469-1.8438-0.10156-3.8398-1.6406-4.9961l-12.117-9.0898-6.207-19.645c-0.50781-1.6133-1.8672-2.8164-3.5312-3.1289l-25.551-4.793-22.523-16.773 2.8281-8.4844c0.46875-1.3984 0.23047-2.9414-0.63281-4.1367-0.85937-1.1992-2.2461-1.9062-3.7227-1.9062h-12.438l-2.707-6.5742c-0.1875-0.45312-0.44141-0.87109-0.76172-1.2422l-8.9102-10.395-0.51172-20.531c-0.042969-1.6953-1.0195-3.2305-2.5391-3.9883l-7.7578-3.8789c-1.3125-0.65625-2.8633-0.64453-4.168 0.03125-1.3047 0.67969-2.207 1.9414-2.4258 3.3945l-3.3242 22.16c-0.082032 0.55859-0.0625 1.1289 0.0625 1.6797l2.1055 9.4805v2.918l-1.0195 5.0977c-0.48047 2.4102 1.0273 4.7734 3.418 5.3555l-0.17188 2.418c-0.019531 0.28906-0.011719 0.57812 0.023437 0.86328l1.1094 9.418c0.21094 1.793 1.4492 3.293 3.168 3.8398l12.191 3.8789h-0.003906c1.3281 0.42188 2.7773 0.21875 3.9414-0.55078l6.6484-4.4336 0.625 10.309c0.054687 0.89844 0.37109 1.7578 0.91016 2.4766l6.1602 8.2109 2.2695 7.5703-6.2266 5.8125v-0.003906c-0.066406 0.0625-0.13281 0.125-0.19531 0.19141l-9.9922 10.488-27.973 4.1445-24.809-0.53516-13.789-2.043-6.3828-3.7578v-18.336l4.3984-7.8164v0.003906c0.50781-0.90625 0.69531-1.9531 0.53125-2.9805l-4.4102-27.566-1.5664-15.664 5.3281-20.254c0.19141-0.72656 0.19922-1.4883 0.027344-2.2188l-2.0039-8.5156 4.832-28.449 0.003906 0.003906c0.125-0.74609 0.066406-1.5078-0.17188-2.2227l-0.83984-2.5195 4.957-5.7852c0.49609-0.57812 0.83984-1.2734 1.0039-2.0234l2.9766-13.883 16.414-12.824c0.71094-0.55859 1.2422-1.3125 1.5273-2.168l2.1953-6.582 5.5977-3.0156c1.2148-0.65625 2.0703-1.8203 2.332-3.1719 0.26172-1.3516-0.097656-2.7539-0.98047-3.8125l-5.543-6.6484c-0.36719-0.44531-0.82031-0.8125-1.3242-1.0898l-4.0117-2.1875-0.82813-7.0625h-0.003906c-0.26953-2.3125-2.2305-4.0547-4.5586-4.0547h-2.3281l-0.73828-12.152 11.676-14.008 1.4883 2.9688c0.58594 1.168 1.6445 2.0352 2.9062 2.375 1.2656 0.33984 2.6133 0.12891 3.7109-0.58984l0.99219 1.6562c0.65625 1.0977 1.7422 1.8672 2.9922 2.1328l6.4766 1.3633 3.1992 2.3477v6.2891h-0.003906c0 0.49219 0.082032 0.98438 0.23828 1.4531l1.5664 4.7031v-0.003906c0.10938 0.33594 0.26172 0.65625 0.44531 0.95703l6.2695 10.184c0.83594 1.3594 2.3164 2.1875 3.9102 2.1875h7.4453c0.64062-0.003906 1.2773-0.13672 1.8633-0.40234l3.5273-1.5664c1.4883-0.66016 2.5156-2.0664 2.6992-3.6875l0.46094-4.1328 1.0039 7.3828-0.003906-0.003906c0.042968 0.30469 0.11328 0.60547 0.21875 0.89844l4.8438 13.836 0.085937-0.17188c-0.69141 1.375-0.64453 3.0078 0.125 4.3438l4.4062 7.6484c-0.050781 0.046875-0.10156 0.089844-0.14844 0.13672l-6.2695 6.2695h0.003906c-0.38281 0.38281-0.69531 0.83203-0.92187 1.3203l-4.7031 10.188h-0.003906c-0.625 1.3594-0.55078 2.9336 0.19531 4.2266l8.6211 14.887c0.58203 1 1.5156 1.7461 2.625 2.0898l10.188 3.1328c2.3125 0.70703 4.7812-0.49609 5.6406-2.7617l7.4453-19.59-0.003906 0.003907c0.28906-0.76172 0.37109-1.582 0.23828-2.3867l-0.11719-0.69531 7.1133-1.4961c2.2344-0.47266 3.7852-2.5117 3.6367-4.7891l-0.78516-12.145c-0.078125-1.2305-0.64844-2.375-1.582-3.1797 0.097656-1.0195-0.14453-2.043-0.69141-2.9062l-4.2227-6.6328 1.9844-4.9609 2.3281-2.75 9.043 0.62109h-0.003906c1.6641 0.11328 3.2578-0.68359 4.168-2.0781l5.0938-7.8359c1.1016-1.6992 0.96094-3.9219-0.34766-5.4688l-3.6523-4.3164-0.31641-1.1602 5.707-7.6055v-0.003906c0.36328-0.48828 0.62891-1.0469 0.77734-1.6406l2.1172-8.4648 2.7422-3.5234 8.1289 3.3633c0.30078 0.125 0.61328 0.21484 0.93359 0.27344l6.2656 1.1406 3.3125 7.2266v-0.003906c0.4375 0.95312 1.1836 1.7266 2.1211 2.1953l3.25 1.6289 2.6055 2.6055v-0.003906c0.50391 0.50391 1.1172 0.88672 1.7969 1.1094l9.4023 3.1328v0.003906c1.5078 0.5 3.1719 0.1875 4.3906-0.83203 1.2227-1.0195 1.832-2.5977 1.6055-4.1719l-1.8984-13.285 7.3633-3.9648c1.4023-0.75391 2.3125-2.1797 2.4102-3.7656 0.09375-1.5859-0.63672-3.1133-1.9375-4.0273l-11.375-8.0273v-2.6758l9.0078 1-0.003906-0.003906c1.3008 0.14453 2.5977-0.26953 3.5703-1.1445 0.97266-0.87109 1.5273-2.1133 1.5273-3.418v-9.8516l5.9492-0.46094c1.2617-0.097657 2.4297-0.71094 3.2227-1.6953l19.398-24.055 14.746-14.008 21.027-7.5078-0.003906-0.003906c0.49609-0.17578 0.95703-0.4375 1.3633-0.76953l17.012-13.918 17.293-10.809c0.37891 1.0586 1.1328 1.9414 2.1172 2.4805l8.6172 4.7031c0.34375 0.1875 0.70703 0.32812 1.0859 0.42188l12.539 3.1328c1.6406 0.41016 3.375-0.11719 4.5117-1.3711 1.1406-1.2539 1.4922-3.0312 0.92578-4.625l-1.8242-5.1094 11.805-0.51562c1.3359-0.058594 2.582-0.69922 3.4102-1.7539 0.82812-1.0547 1.1523-2.418 0.89062-3.7344l-0.039062-0.19531 17.641-7.1875h0.003906c0.082031-0.03125 0.16016-0.066406 0.24219-0.10547l14.867-7.082 10.84 3.1875 2.3633 1.7734-7.3906 12.934c-0.82812 1.4453-0.80469 3.2266 0.054688 4.6523s2.4258 2.2734 4.0898 2.2148l22.723-0.78516c0.56641-0.019531 1.1289-0.14453 1.6484-0.36719l10.969-4.7031h0.003907c1.3047-0.5625 2.2773-1.6992 2.6328-3.0742l8.5547 2.1367 9.2109 12.047v-0.003906c1.4453 1.8906 4.0898 2.3633 6.1016 1.0938l14.887-9.4023c1.7852-1.1289 2.5703-3.332 1.9023-5.3359l-2.6836-8.0547 9.4062-4.9492 12.812 6.0703c1.6016 0.75781 3.4922 0.52734 4.8633-0.58984l11.102-9.0195 7.5586 0.62891c1.0703 0.089844 2.1367-0.19922 3.0156-0.81641l15.668-10.969h0.003906c1.2539-0.87891 1.9922-2.3281 1.957-3.8633s-0.83203-2.9492-2.125-3.7734l-4.3594-2.7773 1.6016-2.0586 19.18-7.375h0.058594l9.25-3.7031zm-497.34 303.6 0.42969 17.148-0.003906 0.003907c0.027344 1.0547 0.41797 2.0664 1.1055 2.8711l9.4961 11.078 3.5977 8.7383-0.003906-0.003907c0.64844 1.5742 2.1094 2.6562 3.8008 2.8203l-8.0234 5.3477-7.2656-2.3125-0.71094-6.0469 0.52344-7.3242h0.003906c0.13672-1.9688-1-3.8086-2.8281-4.5625 0.042968-0.24609 0.066406-0.5 0.070312-0.75v-3.8789c0-0.33203-0.039062-0.66797-0.11328-0.99219l-2.0273-9.1406 1.9492-12.992zm316.71 254.41 9.0391 5.1641 8.8945 12.316 1.4336 12.902v0.003906c0.050782 0.44922 0.16797 0.88672 0.34375 1.3008l0.61328 1.4336-12.863-7.8125-7.332-24.934v0.003906c-0.039062-0.12891-0.082031-0.25391-0.13281-0.37891z"/>
  <path d="m799.2 813.89c-1.3516-0.003906-2.6367 0.59375-3.5078 1.625l-8.6172 10.184c-0.45703 0.53516-0.78125 1.1719-0.95312 1.8516l-0.85156 3.4102-9.6445 1.8086h0.003906c-1.7109 0.32422-3.0938 1.582-3.5703 3.2539l-3.2266 11.293-12.078 3.5898c-1.6211 0.48047-2.8438 1.8125-3.1875 3.4648l-0.95703 4.5898-4.4297-1.2383-2.5742-1.6055v-0.003907c-2.0703-1.293-4.793-0.73828-6.1953 1.2617l-5.4844 7.8359c-0.46875 0.67187-0.75391 1.4609-0.81641 2.2812l-0.39062 5.0938c-0.097656 1.2734 0.33984 2.5312 1.2109 3.4688 0.86719 0.9375 2.0898 1.4727 3.3672 1.4727h-2.1133c0.26562 1.1055 0.92578 2.0742 1.8633 2.7188l4.4414 3.0547 0.63281 9.1484c0.089843 1.3125 0.73828 2.5234 1.7812 3.3242 1.043 0.80078 2.3789 1.1172 3.668 0.86719l8.9883-1.7383 0.69922 1.1602c1.1875 1.9805 3.6602 2.7695 5.7773 1.8438l5.6953-2.4922 1.0703-0.15234-0.039063-0.11328h0.003907c0.41406 1.2461 1.3438 2.2539 2.5469 2.7695 1.207 0.51953 2.5781 0.49609 3.7656-0.0625l1.2852-0.60547 0.082031 0.42969c0.28906 1.5352 1.3359 2.8164 2.7773 3.4023 1.4453 0.58984 3.0898 0.40625 4.3672-0.48828l11.754-8.2266c0.59766-0.41797 1.0859-0.96875 1.4258-1.6133l3.5273-6.6602c0.87109-1.6484 0.66016-3.6562-0.53125-5.0859l0.64062 0.76953 3.0508-3.2539 3.4727-3.4766h-0.003906c0.96484-0.96484 1.4531-2.3047 1.3281-3.6602l-0.21484-2.3398 4.2734-4.8438 4.7422-3.6484 0.003907-0.003907c1.2773-0.98047 1.9453-2.5625 1.7617-4.1641-0.18359-1.6016-1.1953-2.9883-2.6641-3.6562l-3.2969-1.4961h0.003906c0.42578-1.9531-0.45703-3.9609-2.1914-4.9609l-1.8008-1.0391h-0.003907c0.55469-0.71094 0.89062-1.5664 0.96094-2.4648l0.11328-1.4609 1.4922-0.23438h-0.003907c1.3125-0.20312 2.4766-0.96094 3.1836-2.0859 0.71094-1.1211 0.89844-2.4961 0.51562-3.7695l-0.1875-0.62109 3.7656-2.4375 0.003906 0.003906c1.707-1.1055 2.4844-3.2031 1.9062-5.1562-0.57422-1.9492-2.3672-3.2891-4.4023-3.2891h-2.375l-0.41406-1.0312h0.003906c-0.61328-1.5312-2-2.6172-3.6328-2.8438l0.015625 0.12109c-0.007813-0.039063-0.015625-0.078125-0.023438-0.12109h-0.11719 0.11719c-0.31641-2.2656-2.2539-3.9531-4.543-3.957h-7.0508zm2.8789 8.6211c0.23438 2.1328 1.918 3.8203 4.0547 4.0586l0.79297 0.089844 0.32031 0.79688h-0.003907c-0.85156 0.89453-1.3086 2.0938-1.2695 3.3281h-0.03125c-2.1094 0.32422-3.7148 2.0625-3.8789 4.1875l-0.125 1.6289-4.3594 0.88281h0.003906c-1.875 0.37891-3.3164 1.8789-3.625 3.7617-0.30469 1.8867 0.58594 3.7656 2.2422 4.7188l6.1133 3.5156c-0.78516 2.2422 0.26953 4.7109 2.4297 5.6953l1.8047 0.82031-5.6953 6.457h-0.003906c-0.83203 0.94922-1.2422 2.1953-1.1289 3.4531l0.19531 2.168-2.0078 2.0078h0.003906c-0.035156 0.035157-0.070312 0.070313-0.10156 0.10547l-5.875 6.2695h-0.003907c-1.5781 1.6836-1.6602 4.2812-0.1875 6.0625l-1.5664 2.9609-5.0703 3.5508c-0.4375-1.2188-1.3633-2.1992-2.5586-2.6992-1.1953-0.49609-2.543-0.46875-3.7148 0.082031l-2.1953 1.0312c-1.0039-1.3555-2.668-2.0547-4.3359-1.8164l-5.4844 0.78516c-0.41016 0.058594-0.8125 0.17188-1.1914 0.33984l-2.5703 1.125-0.27344-0.45312v-0.003906c-0.99219-1.6523-2.9141-2.5117-4.8086-2.1445l-7.0508 1.3672-0.42578-6.1836c-0.097657-1.3984-0.82422-2.6758-1.9805-3.4688l-4.5391-3.1172-0.16016-1.4414 0.003906-0.003906c-0.13281-1.1758-0.71484-2.2539-1.625-3.0117l2.2422-3.2031-0.5625-0.34766c0.37109 0.23047 0.77344 0.41016 1.1953 0.52734l9.793 2.7422v0.003906c1.2266 0.34375 2.5391 0.16016 3.625-0.5s1.8516-1.7422 2.1094-2.9883l1.3984-6.7188 11.867-3.5273c1.5039-0.44531 2.6758-1.6289 3.1094-3.1406l3.1406-10.984 9.75-1.8281-0.003906 0.003906c1.7617-0.33203 3.1719-1.6602 3.6055-3.4023l1.3086-5.2344 6.5547-7.7422h0.8125l-0.058594-0.55859z"/>
  <path d="m622.78 841.96c-1.3125 0.039063-2.5508 0.64062-3.3906 1.6484l-1.3828 1.6602v0.003906c-0.97266 1.1641-1.3047 2.7383-0.89062 4.1992l2.2148 7.7578v-0.003906c0.30469 1.0586 0.97656 1.9727 1.8945 2.5781l9.0664 5.9609 7.5703 9.6562h0.003906c0.44531 0.56641 1.0156 1.0234 1.6719 1.3281l6.6523 3.1055 3.4844 8.8281v-0.003907c0.30078 0.76953 0.80469 1.4414 1.457 1.9453l8.0703 6.25 10.695 14.707c0.3125 0.42578 0.69141 0.79297 1.125 1.0898l23.551 16.066c0.92969 0.63672 2.0586 0.90625 3.1758 0.76172l8.5859-1.1094v0.003906c1.9375-0.25 3.5039-1.6953 3.9062-3.6055l3.0469-14.406c0.20312-0.96484 0.09375-1.9688-0.31641-2.8633l-3.0469-6.6484c-0.55078-1.1992-1.5898-2.1055-2.8555-2.4844l-6.0703-1.8203-1.1641-3.332c-0.5-1.4219-1.6641-2.5078-3.1133-2.9102l-2.25-0.62109 0.55078-0.92969-0.003906 0.003907c0.65625-1.1133 0.8125-2.4492 0.43359-3.6836-0.375-1.2344-1.2578-2.25-2.4258-2.8008l-9.5547-4.5117-11.816-8.8633h0.003906c-1.0977-0.82031-2.5-1.1094-3.832-0.78516l-7.9062-6.5547c-0.33203-0.27734-0.69922-0.50391-1.0938-0.67188l-8.0469-3.5078v-0.60156c0-1.3867-0.62891-2.6992-1.707-3.5703l-7.2031-5.8164h0.003906c-0.57031-0.46094-1.2422-0.77734-1.957-0.92578l-13.395-2.7695c-0.89844-1.1445-2.2852-1.7969-3.7422-1.7539zm5.5078 11.496 8.6797 1.7969 4.6289 3.7422v1.4062-0.003907c0 1.8281 1.082 3.4805 2.7578 4.2109l10.207 4.4492 10.859 9.0039c1.1875 0.98438 2.793 1.3047 4.2695 0.85547l8.6484 6.4844c0.24609 0.1875 0.51172 0.34375 0.79297 0.47656l5.418 2.5586-1.0391 1.7578c-0.72656 1.2305-0.83594 2.7305-0.30078 4.0547 0.53516 1.3281 1.6562 2.3281 3.0352 2.707l5.7148 1.5742 1.1445 3.2734c0.48438 1.3867 1.6055 2.457 3.0156 2.8789l6.3203 1.8984 1.5508 3.3828-2.0586 9.7344-3.6211 0.46875-21.449-14.637-10.613-14.59-0.003906-0.003906c-0.25391-0.34766-0.55859-0.66406-0.90234-0.92969l-7.5898-5.8789-3.6914-9.3516c-0.42969-1.0938-1.2656-1.9805-2.3281-2.4766l-7.3164-3.4141-7.3594-9.3867v0.003906c-0.30469-0.39453-0.67578-0.73047-1.0898-1.0039l-7.6797-5.0469z"/>
  <path d="m842.32 915.37c-2.5664 0-6.2578 0.48437-11.121 1.168-4.8633 0.67969-10.617 1.5898-16.145 2.4922-10.719 1.7539-19.969 3.4023-20.551 3.5039-0.56641-0.074219-6.7695-0.66406-13.805-1.3281-3.6758-0.34766-7.4219-0.69531-10.402-0.95703-2.9805-0.26562-4.5859-0.44531-6.0977-0.44531-1.875 0-5.9609 0.28906-10.27 0.55859-4.3086 0.28125-8.332 0.55859-8.332 0.55859-0.14453 0.019531-0.29297 0.042969-0.4375 0.078125l-12.562 2.0938-9.7891-1.543v-0.003906c-0.76953-0.12109-1.5547-0.046875-2.2852 0.21875l-12.191 4.4336c-1.8789 0.68359-3.1016 2.5039-3.0195 4.5039 0.085938 2 1.4531 3.7148 3.3828 4.2383l18.285 4.9844-0.003907 0.003906c0.39453 0.10547 0.80078 0.16016 1.2109 0.16016h49.863c0.27344-0.003907 0.54688-0.027344 0.81641-0.078126l52.078-9.418h0.003907c0.1875-0.035156 0.375-0.078125 0.55859-0.13672 0 0 4.9062-1.5391 9.0703-3.1445 2.082-0.80469 3.7383-1.3633 5.5352-2.6328 0.44922-0.31641 0.97656-0.61328 1.6602-1.7109 0.34375-0.55078 0.75391-1.418 0.74609-2.6289-0.015625-1.207-0.63672-2.5391-1.332-3.2656-1.3867-1.4531-2.3359-1.4258-3.0195-1.543-0.68359-0.12109-1.2344-0.13672-1.8477-0.13672zm-78.121 13.617c-0.40234 0 2.3516 0.16016 5.2969 0.41406 2.9414 0.25781 6.6758 0.60547 10.34 0.94922 0.25 0 0.24219 0 0.49219 0.074219l-2.6875 0.48438h-36.082l4.8906-0.8125c0.19922 0 3.9062-0.27344 8.0742-0.54297 4.2812-0.27344 9.3359-0.54297 9.6797-0.54297z"/>
  <path d="m819.39 718.79c-2.4727 0.085938-4.4297 2.1172-4.4297 4.5898v2.0195l-1.3867 16.188-2.125 0.70312c-2.0352 0.67969-3.3281 2.6797-3.1172 4.8125l1.1094 11.082h0.003906c0.14062 1.4336 0.95312 2.7188 2.1836 3.4688l15.512 9.418c1.8086 1.0977 4.1367 0.81641 5.6328-0.67969l6.6484-6.6484-0.003907-0.003907c0.94141-0.94141 1.4297-2.2422 1.332-3.5703-0.09375-1.3281-0.75781-2.5469-1.8203-3.3477l-7.4922-5.6211c0.6875-0.96094 0.79688-1.0625 1.6055-2.25 1.0742-1.5781 2.1602-3.2344 3.0391-4.7617 0.44141-0.76172 0.83203-1.4844 1.1641-2.2422 0.33594-0.75781 0.75-1.3516 0.75-3.0625 0-1.8945-0.36328-2.7422-0.75391-4.25-0.39062-1.5078-0.89062-3.2148-1.3867-4.8438-0.99219-3.2578-1.9766-6.2109-1.9766-6.2109l0.003906 0.003906c-0.53906-1.6133-1.9258-2.7969-3.6055-3.0781l-9.9727-1.6602c-0.30078-0.054688-0.60547-0.082031-0.91406-0.074219zm4.4961 9.9648 2.1133 0.34766c0.36719 1.1289 0.53516 1.6133 1.0703 3.3633 0.47266 1.5586 0.94531 3.1758 1.2812 4.4727 0.26562 1.0273 0.32031 1.5195 0.36719 1.543-0.13672 0.28906-0.3125 0.64062-0.58984 1.1211-0.67578 1.1758-1.6719 2.7031-2.6758 4.1758-2.0039 2.9414-4.0352 5.6484-4.0352 5.6484v0.003907c-0.73047 0.97656-1.043 2.1992-0.87109 3.4062 0.17188 1.207 0.81641 2.293 1.793 3.0234l6.8438 5.1328-0.35547 0.35547-10.473-6.3594-0.51562-5.1484 1.5039-0.5c1.7383-0.57812 2.9648-2.1367 3.1211-3.9648z"/>
  <path d="m854.91 399.36c-1.5664 0.058594-2.9961 0.91406-3.7891 2.2656-0.79297 1.3516-0.84375 3.0156-0.13281 4.4102l9.5117 18.648h0.003906c0.015625 0.03125 0.035156 0.0625 0.050781 0.097656l12.23 22.645c0.050781 0.089843 0.10547 0.17969 0.16406 0.26953l12.23 19.316h-0.003906c1.0195 1.6055 2.9219 2.418 4.7852 2.043s3.3047-1.8594 3.6211-3.7305l0.68359-3.9961c0.10938-0.64844 0.078125-1.3125-0.089844-1.9453l-4.7031-17.781-2.0039-11.785c-0.16406-0.97266-0.64062-1.8633-1.3555-2.5469l-27.859-26.641c-0.89453-0.85547-2.1016-1.3164-3.3438-1.2695zm16.902 26.938 6.8594 6.5586 1.5234 8.957-8.3789-15.516z"/>
  <path d="m883.1 474.45c-1.4453 0.054687-2.7812 0.78516-3.6055 1.9727-0.82422 1.1875-1.043 2.6953-0.58594 4.0664l2.6602 7.9727 2.7109 15.734h0.003906c0.015625 0.09375 0.035156 0.1875 0.058594 0.28125l5.4141 22.746v14.609l-3.3203 7.9688c-1.2266 0.042968-2.3906 0.57812-3.2227 1.4805-0.83203 0.90625-1.2656 2.1055-1.207 3.3359l0.39844 7.9453-13.207 5.918h0.003907c-0.76172 0.33984-1.4141 0.88281-1.8906 1.5664l-8.8633 12.742h-0.003906c-0.14453 0.21094-0.26953 0.42969-0.37891 0.66016l-4.9883 10.527v-0.003907c-0.67969 1.4375-0.56641 3.125 0.29688 4.4609l5.9883 9.2578 4.3398 8.1406c0.79297 1.4805 2.3242 2.4102 4 2.4297 1.6797 0.019531 3.2305-0.87891 4.0547-2.3398l4.9844-8.8633h0.003907c0.42969-0.76562 0.63281-1.6406 0.58203-2.5195l-0.48828-8.2852v-0.003906c0.17578-0.078125 0.34766-0.16797 0.51172-0.26953l9.9727-6.0938v-0.003906c0.80859-0.49219 1.4414-1.2188 1.8164-2.0859l4.6406-10.668 2.2344-0.55859h0.003906c0.87891-0.21875 1.6719-0.69531 2.2812-1.3672l5.5391-6.0938h0.003906c0.011718-0.023437 0.023437-0.050781 0.035156-0.074219l8.8633-9.9766c1.0078-1.1328 1.3906-2.6914 1.0234-4.1602l-4.2266-16.898 1.0039-8.0117c0.082032-0.66016 0.023438-1.332-0.17969-1.9648l-3.8789-12.191v0.003906c-0.24609-0.77734-0.69531-1.4766-1.3047-2.0195l-4.6953-4.2266-1.8984-5.1523 6.2188-2.293c1.5117-0.55859 2.6211-1.8672 2.9219-3.4492l2.2188-11.637c0.3125-1.6367-0.28906-3.3164-1.5703-4.3867l-3.3242-2.7695h-0.003906c-1.293-1.0781-3.0781-1.3594-4.6406-0.73438l-3.6289 1.4492-11.453-5.7266v0.003907c-0.6875-0.34766-1.4492-0.51172-2.2188-0.48438zm7.6992 13.488 3.7109 1.8555c1.1758 0.58594 2.543 0.64062 3.7578 0.15234l1.9258-0.76953-1.0078 5.2852-6.8281 2.5195zm6.4609 31.145 0.84766 0.76562 3.1953 10.039-0.98047 7.8633-0.003906 0.003906c-0.070312 0.55859-0.035156 1.1289 0.10156 1.6797l3.8438 15.379-7.2383 8.1445-4.5898 5.0469-1.8125 0.45313 0.003906-0.003907c0.76562-0.89062 1.1602-2.0391 1.1016-3.2109l-0.26953-5.4492c0.70312-0.49609 1.2539-1.1797 1.5859-1.9766l5.5391-13.297h0.003907c0.23047-0.55859 0.35156-1.1602 0.35156-1.7656v-16.07 0.003906c0-0.35938-0.042969-0.71484-0.125-1.0625l-1.5547-6.5391zm-10.645 51.656c-0.13672 0.21094-0.25391 0.42969-0.35547 0.65625l-4.9648 11.414-3.6602 2.2344v0.003906c-0.45703-1.332-1.4961-2.3828-2.8242-2.8516-1.3281-0.46484-2.7969-0.29688-3.9844 0.45703l-1.9688 1.2539 5.2578-7.5625 12.496-5.6016zm-23.023 22.496c0.10938 0.14453 0.23047 0.28516 0.35938 0.41406l3.7539 3.75 0.37109 6.332-0.21484 0.38672-0.48828-0.91406c-0.0625-0.11328-0.12891-0.22656-0.19922-0.33203l-4.7031-7.2695 1.1172-2.3594z"/>
 </g>
</svg>
