<?xml version="1.0" encoding="UTF-8"?>
<svg width="1200pt" height="1200pt" version="1.1" viewBox="0 0 1200 1200" xmlns="http://www.w3.org/2000/svg">
 <path d="m596.29 278.05c-18.328-0.32812-38.289 4.9805-58.566 11.57-40.461 13.152-82.645 31.664-112.41 27.867-0.074219-0.007812-0.16406 0.007813-0.23438 0h-0.003906c-0.23438-0.015625-0.47266-0.015625-0.70703 0-1.832 0.035157-3.4648 1.168-4.1367 2.875-0.67188 1.7031-0.25 3.6445 1.0664 4.918 0.71484 0.66406 1.625 1.0781 2.5977 1.1836 9.9609 7.957 23.977 9.0664 40.148 7.0859 17.379-2.1289 37.289-7.3398 56.914-11.102 19.629-3.7578 38.93-6.082 54.789-3.3047 15.859 2.7734 28.082 10.035 35.66 26.922 1.0391 2.3164 3.5234 7.5625 5.668 12.281-9.6094 1.0039-19.258 2.1836-26.922 3.543-9.4766 1.6836-16.418 3.4102-20.309 4.9609-70.258 27.992-131.97 93.754-159.41 154.45l-0.003906-0.003907c-0.70703 1.7734-0.23047 3.8008 1.1992 5.0703 1.4297 1.2695 3.5 1.5078 5.1797 0.59766 21.34-11.73 48.488-38.031 80.527-62.82 32.043-24.785 68.52-47.809 106.27-52.664 3.6094-0.46094 12.301-1.5469 20.547-2.5977-27.527 82.941-50.297 171.71-63.762 247.97-67.121 14.695-120.28 66.531-127.53 132.96h-0.003906c-0.32422 2.543 1.4727 4.8672 4.0156 5.1953 2.543 0.32422 4.8711-1.4727 5.1953-4.0156 6.6562-60.98 54.512-109.2 116.43-124.22-4.6211 27.445-7.8555 53.105-9.6836 76.039h0.003906c-0.054687 1.2266 0.39453 2.4219 1.2422 3.3125 0.84375 0.89062 2.0156 1.3984 3.2422 1.4102l102.25-2.3633 0.003906 0.003907c1.418 0.027343 2.7695-0.60938 3.6523-1.7227 0.87891-1.1094 1.1875-2.5742 0.83203-3.9453-4.2344-19.758-8.1484-42.84-10.625-70.375 54.891 16.586 96.375 59.457 106.04 112.65v-0.003906c0.21484 1.1953 0.89453 2.2539 1.8945 2.9414 0.99609 0.69141 2.2266 0.95703 3.4219 0.73828 1.1914-0.22266 2.25-0.90625 2.9336-1.9062 0.6875-1 0.94531-2.2344 0.72266-3.4258-10.516-57.91-56.25-103.96-115.71-120.68-4.4922-59.863-2.3672-139.89 16.059-251.04 10.746 5.1445 21.984 10.812 26.449 12.988 34.285 16.723 61.684 50.055 84.309 83.84 22.625 33.781 40.133 67.527 56.68 85.492 1.2812 1.6172 3.4922 2.1641 5.3828 1.332 1.8867-0.83594 2.9766-2.8398 2.6445-4.875-6.9766-66.355-44.895-148.59-102.73-197.66-3.0156-2.5586-8.5977-5.8984-16.293-10.156-5.9336-3.2773-13.598-6.9961-21.254-10.625 2.0234-1.7109 4.7305-3.957 5.9023-4.9609 14.32-12.219 26.43-14.852 38.023-12.281s22.969 10.941 34.008 21.961c22.078 22.043 41.578 54.258 62.582 68.016h-0.003906c1.5703 1.0156 3.6055 0.96484 5.1211-0.13281s2.2031-3.0156 1.7266-4.8242c-9.1875-33.484-29.094-73.363-55.5-101.31-13.203-13.973-28.117-25.055-44.398-30.465-16.281-5.4102-33.844-4.8828-51.484 3.7773-3.4844 1.7109-8.7852 5.1758-15.586 10.391-5.4062 4.1445-11.938 9.707-18.422 15.352-3.1484-6.9648-6.418-14.035-9.2109-19.363-3.6016-6.8828-6.5039-11.82-8.7383-14.641-12.41-15.684-29.375-21.871-47.703-22.199zm-0.23438 9.2109c16.48 0.29297 30.16 5.1367 40.855 18.656 1.1914 1.5039 4.3047 6.5664 7.793 13.227 3.4883 6.6602 7.3828 15.164 11.336 24.324h-0.003907c0.55078 1.3984 1.7578 2.4375 3.2227 2.7656 1.4648 0.33203 3-0.085937 4.0977-1.1133 8.0586-7.2578 16.074-13.836 22.672-18.895 6.5977-5.0586 12.121-8.793 13.934-9.6836 15.633-7.6758 30.297-7.8359 44.633-3.0703 14.34 4.7656 28.129 14.648 40.621 27.867 19.93 21.094 34.82 49.812 45.105 76.992-13.941-14.961-29.027-34.25-46.051-51.246-11.621-11.602-24.184-21.152-38.496-24.324-14.309-3.1719-29.965 0.64844-45.816 14.168-2.2031 1.8789-6.2656 5.3594-11.102 9.4453l0.003906 0.003906c-1.1758 0.99219-1.7734 2.5117-1.582 4.0391 0.19141 1.5234 1.1406 2.8516 2.5273 3.5195 10.062 4.5352 19.453 9.332 26.922 13.461 7.4688 4.1289 13.301 7.8711 14.879 9.2109 49.727 42.199 83.582 110.96 95.176 170.75-12.473-17.992-26.332-41.148-43.688-67.07-22.961-34.285-51.027-69.184-87.852-87.141-5.1367-2.5039-18.617-9.5625-32.117-15.824h-0.003906c-0.60547-0.21094-1.25-0.28906-1.8867-0.23437h-0.47266s-0.26562-0.03125-0.47266 0c-0.24219 0.058593-0.48047 0.13672-0.71094 0.23437-0.16016 0.070313-0.31641 0.14844-0.47266 0.23828-0.078125 0.03125-0.23438 0-0.23438 0l-0.47266 0.23438s-0.007813 0.22656 0 0.23438c-0.83594 0.64844-1.4219 1.5664-1.6523 2.5977-0.082031 0.078125-0.16016 0.15625-0.23828 0.23828-0.015625 0.085938 0.015625 0.14844 0 0.23438-0.007813 0.15625-0.007813 0.31641 0 0.47266-28.941 170.85-19.816 269.45-6.375 334.64l-91.629 2.125c1.9883-22.762 5.5039-48.184 10.156-75.336h-0.003906c0.003906-0.078125 0.003906-0.15625 0-0.23438 0.45703-0.86719 0.62109-1.8594 0.47266-2.832 0.007813-0.15625 0.007813-0.3125 0-0.46875 13.57-77.938 37.098-169.68 65.652-254.59 0.46875-1.4453 0.17578-3.0312-0.77344-4.2188-0.95312-1.1875-2.4336-1.8203-3.9492-1.6836-11.777 1.418-22.98 2.9492-27.629 3.543-40.566 5.2188-78.238 29.16-110.76 54.316-24.453 18.918-44.691 36.531-62.109 49.594 29.773-52.891 83.289-107.28 143.59-131.3 2.0469-0.81641 9.4531-2.6172 18.656-4.25 9.207-1.6328 20.57-3.25 32.355-4.25l-0.003906-0.003906c1.4727-0.11719 2.793-0.94141 3.543-2.207 0.75391-1.2695 0.83984-2.8242 0.23828-4.168-3.4883-7.75-6.7969-14.438-8.2656-17.711-8.7344-19.461-24.359-29.219-42.273-32.355-17.914-3.1328-38.105-0.28516-58.094 3.543-19.988 3.8281-39.742 8.8477-56.207 10.863-2.8047 0.34375-4.7578-0.14453-7.3203 0 27.078-4.9922 56.523-17.262 84.785-26.449 19.922-6.4766 39.016-11.156 55.5-10.863zm-112.89 519.09c-11.988-0.49219-25.098 4.1914-38.73 17.004-0.09375 0.089844-0.14062 0.15234-0.23438 0.23438-16.785 14.672-27.492 17.234-36.367 15.352-8.9375-1.8984-17.379-9.1406-27.867-16.531-10.488-7.3906-23.355-14.523-41.094-13.934-17.738 0.58984-39.883 8.4688-69.668 29.758l-0.003907-0.003907c-2.0898 1.5-2.5664 4.4062-1.0664 6.4961 1.5 2.0859 4.4102 2.5625 6.4961 1.0625 28.941-20.684 49.258-27.832 64.473-28.34 15.215-0.50781 25.734 5.2852 35.66 12.281 9.9258 6.9961 19 15.598 31.172 18.184 12.172 2.5859 26.332-1.8242 44.398-17.711v-0.003907c0.082031-0.074218 0.16016-0.15234 0.23828-0.23047 14.316-13.559 25.324-16.184 36.133-14.406 10.809 1.7773 21.809 8.75 33.535 16.059 11.727 7.3125 24.324 14.973 39.203 16.766 14.879 1.793 31.621-2.7266 50.301-18.184 13.402-12.07 23.809-14.102 34.242-12.043 10.434 2.0547 21.074 8.8242 32.828 15.824 11.754 6.9961 24.867 14.32 40.148 15.586s32.344-3.625 51.957-19.129c16.25-12.625 27.176-14.184 36.84-11.57 9.668 2.6094 18.648 10.129 29.047 17.238s22.566 13.738 38.258 12.281c15.691-1.457 34.051-10.691 57.859-32.824l-0.003907-0.003906c1.0234-0.77344 1.6719-1.9453 1.7812-3.2227 0.11328-1.2773-0.32031-2.5391-1.1953-3.4805-0.87109-0.9375-2.1016-1.4648-3.3828-1.4492-1.2812 0.019531-2.4961 0.57812-3.3438 1.5391-23.012 21.395-39.609 29.273-52.426 30.465-12.82 1.1914-22.504-3.8906-32.355-10.625-9.8516-6.7344-19.508-15.316-31.883-18.656-12.371-3.3398-27.004-0.71094-44.633 12.988-18.34 14.5-32.93 18.309-45.816 17.238-12.887-1.0703-24.59-7.2969-36.133-14.168-11.543-6.8711-22.758-14.461-35.66-17.004-12.902-2.543-27.152 0.76172-42.035 14.168-17.348 14.352-31.062 17.555-43.453 16.059s-23.801-8.1055-35.426-15.352c-11.621-7.2461-23.395-15.027-36.84-17.238-1.6719-0.27344-3.2461-0.40234-4.9609-0.46875zm-0.23438 72.266c-11.996-0.46094-24.824 4.3555-38.496 17.238-0.058594 0.074219-0.17969-0.074218-0.23438 0-16.859 14.773-27.469 17.477-36.367 15.586-8.9375-1.8984-17.379-9.375-27.867-16.77-10.488-7.3906-23.355-14.523-41.094-13.934-17.738 0.58984-39.883 8.7031-69.668 29.992l-0.007813 0.003907c-2.0195 1.5-2.4414 4.3555-0.94141 6.375 1.5 2.0234 4.3516 2.4453 6.375 0.94531 28.941-20.684 49.258-27.598 64.473-28.102 15.215-0.50781 25.734 5.2852 35.66 12.281 9.9258 6.9961 19 15.363 31.172 17.949 12.172 2.582 26.332-1.5859 44.398-17.477v-0.003906c0.082031-0.074219 0.16016-0.15234 0.23828-0.23438 14.312-13.559 25.324-16.184 36.133-14.406 10.809 1.7773 21.809 8.75 33.535 16.059 11.727 7.3086 24.324 14.973 39.203 16.77 14.879 1.793 31.621-2.7266 50.301-18.184h-0.003906c0.003906-0.078125 0.003906-0.15625 0-0.23438 13.402-12.07 23.809-13.863 34.242-11.809 10.434 2.0547 21.074 8.8242 32.828 15.824s24.867 14.082 40.148 15.352c15.281 1.2656 32.344-3.625 51.957-19.129 16.25-12.625 27.176-13.945 36.84-11.336 9.668 2.6094 18.648 10.133 29.047 17.238 10.398 7.1094 22.566 13.738 38.258 12.281s34.051-10.691 57.859-32.828c1.0234-0.77344 1.668-1.9453 1.7812-3.2227s-0.32031-2.5391-1.1953-3.4805c-0.87109-0.9375-2.1016-1.4648-3.3828-1.4492-1.2812 0.019532-2.4961 0.57812-3.3438 1.5391-23.012 21.395-39.609 29.039-52.426 30.23-12.82 1.1914-22.504-3.8945-32.355-10.625-9.8516-6.7344-19.508-15.078-31.883-18.422-12.371-3.3398-27.004-0.71094-44.633 12.988-18.34 14.5-32.93 18.309-45.816 17.238-12.887-1.0664-24.59-7.2969-36.133-14.168-11.543-6.8711-22.758-14.461-35.66-17.004-12.852-2.5312-26.98 0.89844-41.801 14.168h-0.23438v-0.23438c-17.348 14.355-31.062 17.789-43.453 16.297-12.391-1.4922-23.801-8.3398-35.426-15.586-11.621-7.2461-23.395-15.027-36.84-17.238-1.6758-0.27344-3.4805-0.40625-5.1953-0.46875z"/>
</svg>
