<?xml version="1.0" encoding="UTF-8"?>
<svg width="1200pt" height="1200pt" version="1.1" viewBox="0 0 1200 1200" xmlns="http://www.w3.org/2000/svg">
 <g>
  <path d="m1120.6 177.51c-0.074219-26.078-13.379-50.336-35.332-64.418-1.4258-25.293-13.039-48.922-32.184-65.508-19.148-16.582-44.195-24.699-69.43-22.504-25.234 2.1992-48.5 14.527-64.492 34.168-21.816-20.43-48.875-34.402-78.168-40.363-29.289-5.9609-59.656-3.6758-87.723 6.6016-18.316-17.289-42.836-26.449-68-25.402-25.164 1.0469-48.836 12.211-65.652 30.965-37.621-24.359-82.543-34.891-127.07-29.793-44.531 5.1016-85.906 25.516-117.05 57.75-15.066-23.703-39.984-39.383-67.871-42.707-27.891-3.3242-55.797 6.0547-76.012 25.547-36.543-13.281-77.344-6.9219-108.11 16.852-30.766 23.773-47.215 61.648-43.582 100.36 3.6289 38.711 26.832 72.867 61.484 90.504-3.7539 10.223-5.668 21.031-5.6562 31.922 0.027344 24.844 9.9062 48.66 27.473 66.227 17.566 17.566 41.383 27.449 66.227 27.477 3.8203 0.003906 7.6367-0.23438 11.43-0.70703 11.562 21.781 29.91 39.199 52.266 49.617 22.352 10.414 47.492 13.258 71.605 8.0977 9.0938 11.289 23.156 22.23 49.09 22.23 16.129 0 28.531-2.5938 39.926-8.418h0.003906c0.32422 2.5391 0.46094 5.0977 0.41406 7.6562v147.64c-0.18359-0.21875-0.34766-0.45312-0.49219-0.69531 0-0.16797-0.085938-0.30469-0.09375-0.46875v-0.003907c-0.0625-0.6875-0.19922-1.3711-0.41016-2.0312-0.45312-2.4531-2.0078-4.5625-4.2188-5.7188-0.55859-0.39062-1.1641-0.72266-1.793-0.98437-0.15625-0.054688-0.26172-0.17969-0.41797-0.23047l-0.003906 0.003906c-0.99219-0.0625-1.9805-0.21094-2.9453-0.45312-0.15234 0-0.28125 0.078125-0.42969 0.085938h-0.003907c-0.74609 0.0625-1.4883 0.21094-2.1992 0.44531-2.4023 0.48047-4.4531 2.0195-5.5898 4.1914-0.39062 0.5625-0.72266 1.1641-0.98438 1.7969-0.054688 0.15625-0.17969 0.26172-0.23047 0.41797l-184.15 589.51c-0.78125 2.5-0.53906 5.2109 0.67578 7.5352 1.2188 2.3203 3.3086 4.0664 5.8086 4.8477 2.5039 0.78125 5.2148 0.53906 7.5352-0.67969 2.3242-1.2148 4.0664-3.3047 4.8477-5.8086l136.88-438.18c7.1016-4.3008 28.711-15.797 50.395-10.684 15.902 3.7852 25.492 8.7773 29.316 15.254 2.7617 4.6836 2.9492 11.109 0.57812 19.629-1.332 4.8008-2.8594 9.9766-4.4727 15.457-7.5234 25.551-16.887 57.355-18.156 87.758-1.9688 47.238 30.711 54.238 46.414 57.598v0.003906c2.6992 0.57812 5.4492 0.86719 8.207 0.86328 23.895 0 46.195-21.43 51.035-43.246 4.8086-21.637 22.449-75.375 30.68-88.156 8.5664-13.297 15.453-20.953 38.957-15.074 18.195 4.5547 26.668 14.648 26.668 31.793 0 13.723 7.1641 50.352 28.453 69.867 9.6328 8.8555 23.156 11.598 37.031 7.6445h-0.003906c17.941-5.3945 31.914-19.531 37.09-37.535 3.7773-13.594 4.3633-28.961 4.8828-42.527 0.50391-13.027 1.0156-26.516 4.4609-32.254 8.9258-14.867 17.285-19.875 29.938-17.621 11.129 1.9297 18.633 18.234 20.582 24.344l123.41 395.07h0.003906c0.78125 2.5039 2.5234 4.5938 4.8477 5.8086 2.3203 1.2188 5.0312 1.4609 7.5352 0.67969 2.5-0.78125 4.5898-2.5273 5.8086-4.8477 1.2148-2.3242 1.457-5.0352 0.67578-7.5352l-123.41-395.06v-0.003906l-0.003907-0.015625-60.734-194.43c-0.046876-0.14844-0.16406-0.25-0.21484-0.39453v-0.003906c-0.30469-0.78125-0.71094-1.5234-1.2031-2.2031-0.20312-0.34766-0.42188-0.6875-0.66406-1.0078-0.76562-0.87891-1.6797-1.6133-2.7031-2.1719-0.023437-0.011718-0.042969-0.035156-0.066406-0.046875-1.3828-0.82031-2.9492-1.2695-4.5586-1.3047-5.1133 0.45312-9.2148 4.4297-9.8203 9.5312 0 0.0625-0.035157 0.11328-0.035157 0.17578l-0.003906-0.003906c-0.097656 0.16016-0.20312 0.31641-0.31641 0.46484l-0.023438-147.74c-0.019531-2.3281 0.11719-4.6523 0.41406-6.9609 11.406 5.8359 23.812 8.4297 39.945 8.4297 37.133 0 50.289-22.113 59.898-38.254 1.8711-3.1523 3.6875-6.2031 5.5547-8.9336h-0.003906c14.676 3.4102 30.031 2.3867 44.121-2.9375 14.094-5.3203 26.289-14.707 35.047-26.965 2.6836-3.8398 4.9688-7.9453 6.8203-12.25 29.531-0.76563 57.598-13.027 78.223-34.172 20.629-21.145 32.188-49.508 32.223-79.047 0-0.53906-0.007812-1.0938-0.019531-1.6328 15.16-5.1758 28.316-14.977 37.617-28.023 9.2969-13.047 14.266-28.68 14.207-44.703zm-347.95 443.21 42.078 134.71c-1.2734-0.50781-2.582-0.92969-3.9141-1.2617-30.848-5.2383-45.469 18.945-50.262 26.941-6.0508 10.09-6.6172 24.727-7.2656 41.676-0.49609 13.078-1.0156 26.605-4.1758 37.969l-0.003906 0.003906c-3.3398 11.371-12.156 20.316-23.484 23.824-4.2031 1.1836-12.133 2.3555-18.227-3.2031-14.68-13.449-22.043-42.707-22.043-55.297 0-26.156-14.789-44.25-41.645-50.973-35.898-8.9844-49.992 7.4531-60.367 23.543-10.895 16.926-29.031 75.105-33.363 94.578-3.332 15.047-20.602 30.609-35.797 27.34-18.785-4.0273-31.984-9.0625-30.801-37.441 1.1641-27.969 10.148-58.488 17.363-82.996 1.6484-5.5859 3.1992-10.863 4.5547-15.742 3.8789-13.992 3.0312-25.422-2.6055-34.984-6.7852-11.496-20.055-19.27-41.762-24.43-17.445-4.1367-34.246-0.58594-46.922 4.1484l33.871-108.4c31.695 20.508 110.93 26.652 162.39 26.652 1.9609 0 4.082-0.039063 6.1211-0.058594 0.10156 0.003906 0.18359 0.058594 0.28516 0.058594 0.10938 0 0.20313-0.058594 0.3125-0.0625 51.418-0.50391 125.29-6.9414 155.66-26.59zm283.6-387.45c-4.8164 1.0938-8.0859 5.5781-7.6523 10.5 0.23047 2.6758 0.41797 5.3555 0.41797 8.0977-0.027343 24.785-9.8867 48.547-27.414 66.074s-41.289 27.383-66.078 27.41l-3.5781-0.19141c-4.3125-0.09375-8.1992 2.5859-9.6406 6.6523-1.6172 5.0078-3.9492 9.7539-6.9219 14.094-6.9922 9.7891-16.941 17.078-28.379 20.793-11.441 3.7188-23.773 3.6641-35.18-0.14453-3.7578-1.2969-7.9219-0.19922-10.551 2.7773-4.3438 5.1953-8.1836 10.797-11.461 16.723-9.1328 15.344-17.016 28.602-42.906 28.602-14.625 0-24.602-2.4219-34.133-8.1289v-0.003906c5.0117-10.023 12.609-18.531 22.008-24.641 4.543-3.0273 5.7695-9.1641 2.7422-13.707s-9.168-5.7695-13.711-2.7422c-23.277 14.84-37.266 40.625-37.008 68.23v157.63c-13.453 4.1914-27.211 7.3398-41.145 9.418v-72.715c0-5.4609-4.4258-9.8867-9.8867-9.8867-5.457 0-9.8828 4.4258-9.8828 9.8867v75.453c-17.301 2.0273-37.117 3.4727-59.336 3.9531l-0.003906-165.96c0-5.4609-4.4258-9.8867-9.8828-9.8867-5.4609 0-9.8867 4.4258-9.8867 9.8867v166.12c-15.73-0.074219-30.391-0.61328-43.906-1.5195l0.003906-114.29c0-5.4609-4.4258-9.8867-9.8867-9.8867s-9.8867 4.4258-9.8867 9.8867v112.63c-30.617-3.0859-53.98-7.9844-69.156-12.906l-0.027344-157.11v-0.003906c0.48047-27.844-13.527-53.941-36.992-68.938-4.543-3.0273-10.68-1.8008-13.707 2.7422s-1.8008 10.68 2.7422 13.707c9.4062 6.1055 17.012 14.605 22.031 24.633-9.5352 5.7148-19.516 8.1406-34.16 8.1406-19.68 0-29-7.6953-36.941-19.254l0.003906-0.003906c-2.3906-3.5078-6.7656-5.0859-10.844-3.9141-19.746 5.4844-40.746 4.332-59.773-3.2852-19.023-7.6133-35.023-21.266-45.531-38.859 0.49609-0.20312 1-0.32422 1.4961-0.53516 11.039-4.6914 21.27-11.094 30.312-18.973 4.1055-3.5938 4.5273-9.832 0.94141-13.945-3.5859-4.1094-9.8242-4.5391-13.941-0.96094-7.4727 6.5195-15.93 11.809-25.062 15.68-2.9375 1.2266-5.9336 2.3008-8.9844 3.2188-0.32422-0.007813-0.64844 0.007812-0.96875 0.035156-21.789 4.5469-44.465-0.96875-61.734-15.008-17.27-14.039-27.293-35.109-27.293-57.367 0-11.297 2.6133-22.438 7.6406-32.551 1.2148-2.4688 1.3438-5.332 0.36328-7.9023-0.98438-2.5664-2.9922-4.6133-5.543-5.6406-23.273-9.332-41.828-27.605-51.52-50.73-9.6914-23.125-9.7031-49.172-0.039063-72.305 9.6641-23.137 28.203-41.43 51.461-50.789 23.262-9.3633 49.305-9.0039 72.297 0.98828 3.9062 1.6758 8.4453 0.67969 11.297-2.4727 16.785-18.816 42.016-27.762 66.902-23.719 24.891 4.043 45.992 20.512 55.961 43.672 0.074219 0.16797 0.24609 0.25391 0.32422 0.41797 4.4492 12.629 4.7578 26.348 0.87891 39.168-3.8789 12.816-11.742 24.062-22.449 32.105-4.3203 3.332-5.1289 9.5391-1.8008 13.867 3.3281 4.3242 9.5352 5.1367 13.863 1.8125 13.305-10.18 23.25-24.113 28.551-40.004 5.3008-15.891 5.7148-33.004 1.1836-49.133 28.434-32.164 67.797-52.629 110.46-57.418 42.664-4.7891 85.586 6.4336 120.45 31.496 4.4023 3.168 10.539 2.1836 13.73-2.1992 12.891-17.762 33.031-28.848 54.93-30.23 21.902-1.3867 43.277 7.0742 58.297 23.07 0.37891 0.85938 0.87891 1.6562 1.4844 2.3711 8.4648 8.918 15.098 19.414 19.516 30.891 1.4727 3.8086 5.1367 6.3164 9.2188 6.3203 1.2188 0.003907 2.4258-0.22266 3.5625-0.66797 2.4453-0.94531 4.418-2.8203 5.4805-5.2188 1.0625-2.3984 1.125-5.1172 0.17969-7.5625-3.793-9.7773-8.9258-18.98-15.246-27.348 25.605-7.9492 52.941-8.4609 78.828-1.4805 25.883 6.9844 49.254 21.176 67.387 40.926 2.082 2.293 5.1328 3.4531 8.2109 3.1289 3.0742-0.29688 5.832-2.0117 7.4609-4.6367 11.324-18.449 30.172-31 51.562-34.332 21.391-3.3359 43.168 2.8828 59.57 17.012 16.402 14.125 25.781 34.738 25.656 56.387 0 3.6172 1.9727 6.9453 5.1484 8.6758 13.746 7.3672 23.871 20.051 28.012 35.086 4.1406 15.039 1.9336 31.117-6.1055 44.484-8.0352 13.363-21.203 22.852-36.426 26.246z"/>
  <path d="m729.23 255.05c-2.4062-1.0508-5.1328-1.0977-7.5742-0.125-2.4375 0.96875-4.3906 2.8711-5.4219 5.2852-6.2852 14.492-9.4766 30.141-9.3633 45.938 0.035156 5.4336 4.4531 9.8203 9.8867 9.8242h0.0625c5.4609-0.042969 9.8555-4.4922 9.8203-9.9531-0.046875-13.055 2.5859-25.984 7.7422-37.98 1.0391-2.4062 1.082-5.1289 0.11328-7.5625-0.96484-2.4375-2.8594-4.3867-5.2656-5.4258z"/>
  <path d="m639.47 128.07c-21.621-12.285-46.691-17.094-71.324-13.684-5.4102 0.73828-9.1992 5.7188-8.4648 11.129s5.7188 9.1992 11.129 8.4609c32.328-4.3438 64.609 8.293 85.398 33.43 3.4805 4.1992 9.7031 4.793 13.914 1.3203 4.207-3.4727 4.8047-9.6953 1.3398-13.91-8.9297-10.805-19.773-19.875-31.992-26.746z"/>
  <path d="m1008.9 167.45c-18.84-5.2578-35.566-16.27-47.844-31.496-3.4414-4.2422-9.668-4.8906-13.91-1.4492-4.2383 3.4414-4.8867 9.668-1.4453 13.906 14.855 18.41 35.086 31.723 57.867 38.086 0.87109 0.24219 1.7695 0.36328 2.6719 0.36328 4.9414-0.007813 9.1172-3.6562 9.7891-8.5469 0.66797-4.8945-2.375-9.5312-7.1289-10.863z"/>
  <path d="m431.39 226.9c-4.582-2.9648-10.703-1.6523-13.668 2.9336-2.9648 4.5859-1.6523 10.703 2.9336 13.668 23.125 14.969 38.578 39.27 42.336 66.559 0.66406 4.8984 4.8398 8.5508 9.7812 8.5586 0.44922 0.003906 0.89453-0.027344 1.3398-0.089844 2.5977-0.35156 4.9492-1.7188 6.5352-3.8047 1.5898-2.0859 2.2852-4.7188 1.9336-7.3164-4.5273-33.008-23.219-62.406-51.191-80.508z"/>
  <path d="m900.35 255.91c-27.016 3.9492-50.746 20.016-64.441 43.633-2.7422 4.7188-1.1406 10.77 3.5781 13.516 1.5039 0.87891 3.2188 1.3438 4.9609 1.3398 3.5234 0 6.7812-1.875 8.5547-4.918 10.688-18.414 29.199-30.938 50.27-34.008 5.3984-0.80859 9.1211-5.8398 8.3164-11.242-0.80859-5.3984-5.8398-9.125-11.238-8.3203z"/>
  <path d="m259.56 155.64c-5.1914-1.6992-10.777 1.1289-12.48 6.3203-3.3359 10.199-8.3945 19.75-14.957 28.238-3.332 4.3203-2.5352 10.523 1.7773 13.859 4.3164 3.3398 10.52 2.5508 13.863-1.7578 7.9414-10.277 14.066-21.84 18.109-34.188 1.6992-5.1875-1.125-10.77-6.3125-12.473z"/>
 </g>
</svg>
