<?xml version="1.0" encoding="UTF-8"?>
<svg width="1200pt" height="1200pt" version="1.1" viewBox="0 0 1200 1200" xmlns="http://www.w3.org/2000/svg">
 <g>
  <path d="m1181.7 571.88h-146.02l-32.109-33.516v-3.9844h22.969c26.016 0 47.344-21.328 47.344-47.344 0-7.2656-1.6406-14.531-4.9219-21.094-11.953-24.141-18.516-51.094-18.516-78.047v-3.5156c0-30.938-25.312-56.25-56.25-56.25s-56.25 25.312-56.25 56.25v3.5156c0 23.203-4.6875 46.406-13.594 67.734l-1.1719-1.4062c-8.6719-21.094-13.125-43.828-13.125-66.562v-3.2812c0-30.938-25.312-56.25-56.25-56.25-14.531 0-27.656 5.3906-37.5 14.531l-174.84-182.58c-10.781-11.25-25.078-17.344-40.547-17.344s-30 6.0938-40.547 17.344l-35.156 36.797h-133.83c-5.1562 0-9.375 4.2188-9.375 9.375v49.922c-17.344-2.1094-35.156 3.9844-47.578 17.109l-69.375 73.594h-58.359c-5.1562 0-9.375 4.2188-9.375 9.375v62.344l-144.61 153.28h-33.516c-5.1562 0-9.375 4.2188-9.375 9.375 0 96.094 22.734 191.72 65.625 276.09 98.672 194.06 290.86 314.53 501.8 314.53 152.11 0 306.8-63.047 424.22-172.73 58.594-54.844 105-117.89 137.58-187.73 34.453-73.594 52.031-151.17 52.031-230.16 0-5.1562-4.2188-9.375-9.375-9.375zm-318.75 0v-37.5h22.969c15.469 0 29.297-7.5 37.969-19.219 8.6719 11.484 22.5 19.219 37.969 19.219h11.953l11.016 11.484v26.016zm36.328 21.562 8.6719 18.047c2.3438 5.1562 1.4062 11.25-2.3438 15.234-2.3438 2.3438-5.1562 3.5156-8.2031 3.5156s-6.0938-1.1719-8.2031-3.5156c-5.8594-6.0938-13.594-9.375-21.797-9.375-4.9219 0-9.6094 1.1719-13.828 3.5156-6.7969 3.5156-14.297 5.3906-22.031 5.3906-13.125 0-25.547-5.3906-34.922-15.234-3.9844-4.2188-6.3281-10.078-6.3281-16.172 0-1.4062 0.23438-2.8125 0.46875-4.2188h107.11l1.4062 2.8125zm-201.09-21.562-41.719-44.062c7.0312 4.2188 15.234 6.5625 23.906 6.5625h22.969v37.5zm-89.297 47.109 4.2188 4.6875c5.3906 5.8594 10.078 12.422 14.062 19.219 3.9844 7.0312 7.2656 14.531 9.375 22.266 1.4062 4.4531 1.875 8.9062 1.875 13.359 0 19.688-11.953 36.797-29.766 42.656-32.812 10.781-53.906 44.297-50.391 79.688l6.0938 60c0.9375 8.6719 3.75 16.875 8.4375 24.141s11.016 13.125 18.516 17.344c7.5 3.9844 14.062 9.375 19.922 15.703 14.062 15.469 21.797 35.625 21.797 56.953 0 4.4531-0.23438 8.9062-0.9375 13.125-1.1719 7.0312-4.6875 13.125-10.078 17.344l-26.953 20.391c-2.5781 1.875-5.625 3.0469-8.6719 3.0469-5.625 0-12.422-3.5156-14.766-11.484-0.9375-3.2812-1.4062-6.7969-1.4062-10.312 0-5.625 1.4062-11.016 3.75-16.172 2.1094-4.2188 3.2812-8.9062 3.2812-13.594 0-11.016-5.8594-21.094-15.234-26.016-13.125-7.2656-24.141-17.812-32.344-30.938-7.9688-13.125-12.891-28.125-13.594-43.828-0.23438-6.0938-1.4062-12.188-3.0469-17.812l11.719-38.438c9.6094-31.875 5.3906-66.797-11.953-95.391-1.1719-1.875-1.6406-3.9844-1.6406-6.0938 0-3.5156 1.6406-7.0312 4.4531-9.1406l5.625-4.4531c16.875-13.828 20.625-38.203 8.6719-56.484l-20.156-30.703c-2.8125-4.2188-3.5156-9.375-1.875-14.062l4.2188-13.125h82.031c2.3438 10.312 7.5 20.156 14.766 28.125zm-159.84 138.98c-6.0938-21.797 2.3438-45 20.859-57.891l11.484-7.9688c9.6094-6.5625 13.359-18.984 8.9062-29.766l-13.125-31.641c-2.3438-5.625-2.5781-11.953-0.70312-17.812l7.2656-22.266h8.6719l-2.3438 7.5c-3.2812 10.078-1.875 21.094 3.9844 30l20.156 30.703c6.7969 10.312 4.6875 23.906-4.9219 31.641l-5.625 4.4531c-7.0312 5.8594-11.25 14.531-11.25 23.672 0 5.625 1.4062 11.016 4.4531 15.703 14.531 24.141 18.047 53.438 10.078 80.391l-5.8594 19.219c-11.484-15.703-28.359-26.719-47.812-30l-10.781-1.875c5.625-8.6719 8.4375-18.75 8.4375-29.297 0.23438-4.9219-0.46875-9.8438-1.875-14.766zm157.97-186.09v-69.141l65.391 69.141zm163.83-97.5c1.875 3.9844 3.0469 8.4375 3.0469 12.656 0 15.703-12.891 28.594-28.594 28.594h-22.969v-80.391l15.938-15.938c3.75-3.75 3.75-9.6094 0-13.359s-9.6094-3.75-13.359 0l-2.8125 2.8125v-33.75c0-5.1562-4.2188-9.375-9.375-9.375s-9.375 4.2188-9.375 9.375v89.766l-2.8125-2.8125c-3.75-3.75-9.6094-3.75-13.359 0s-3.75 9.6094 0 13.359l15.938 15.938v24.375h-22.969c-15.703 0-28.594-12.891-28.594-28.594 0-4.4531 0.9375-8.9062 3.0469-12.656 13.359-26.719 20.391-56.719 20.391-86.484v-3.5156c0-20.625 16.875-37.5 37.5-37.5s37.5 16.875 37.5 37.5v3.5156c0.46875 29.766 7.5 59.766 20.859 86.484zm-48.516 60h22.969c15.469 0 29.297-7.5 37.969-19.219 8.6719 11.484 22.5 19.219 37.969 19.219h22.969v37.5h-121.88zm287.34 37.5h-6.0938v-6.3281zm-52.969-183.98v-3.5156c0-20.625 16.875-37.5 37.5-37.5s37.5 16.875 37.5 37.5v3.5156c0 29.766 7.0312 59.766 20.391 86.484 1.875 3.9844 3.0469 8.4375 3.0469 12.656 0 15.703-12.891 28.594-28.594 28.594h-22.969v-80.391l15.938-15.938c3.75-3.75 3.75-9.6094 0-13.359s-9.6094-3.75-13.359 0l-2.8125 2.8125v-33.75c0-5.1562-4.2188-9.375-9.375-9.375s-9.375 4.2188-9.375 9.375v89.766l-2.8125-2.8125c-3.75-3.75-9.6094-3.75-13.359 0s-3.75 9.6094 0 13.359l15.938 15.938v24.375h-22.969c-15.703 0-28.594-12.891-28.594-28.594 0-4.4531 0.9375-8.9062 3.0469-12.656 13.828-26.719 20.859-56.719 20.859-86.484zm-103.12-41.016c20.625 0 37.5 16.875 37.5 37.5v3.5156c0 25.547 5.1562 51.328 15 75 0 0 0 0.23438 0.23438 0.23438 1.6406 3.75 3.2812 7.5 5.1562 11.25 1.875 3.9844 3.0469 8.4375 3.0469 12.656 0 15.703-12.891 28.594-28.594 28.594h-22.969v-80.391l15.938-15.938c3.75-3.75 3.75-9.6094 0-13.359s-9.6094-3.75-13.359 0l-2.8125 2.8125v-33.75c0-5.1562-4.2188-9.375-9.375-9.375s-9.375 4.2188-9.375 9.375v89.766l-2.8125-2.8125c-3.75-3.75-9.6094-3.75-13.359 0s-3.75 9.6094 0 13.359l15.938 15.938v24.375h-22.969c-15.703 0-28.594-12.891-28.594-28.594 0-4.4531 0.9375-8.9062 3.0469-12.656 13.359-26.719 20.391-56.719 20.391-86.484v-3.5156c0.46875-20.625 17.344-37.5 37.969-37.5zm-280.31-173.91c7.0312-7.5 16.641-11.484 27.188-11.484s19.922 4.2188 27.188 11.484l176.72 184.45c-4.4531 7.9688-6.7969 17.109-6.7969 26.953v3.5156c0 23.438-4.9219 47.109-14.062 68.672-9.1406-21.562-14.062-45.234-14.062-68.672v-3.5156c0-30.938-25.312-56.25-56.25-56.25s-56.25 25.312-56.25 56.25v3.5156c0 26.953-6.3281 53.906-18.516 78.047-3.2812 6.5625-4.9219 13.828-4.9219 21.094 0 7.7344 1.875 15 5.1562 21.562l-31.641-33.281v-269.06c0-5.1562-4.2188-9.375-9.375-9.375h-47.109zm15 42.656v356.25h-128.67v-56.25h100.55c5.1562 0 9.375-4.2188 9.375-9.375v-37.5c0-5.1562-4.2188-9.375-9.375-9.375h-105.94l-18.75-18.75h124.69c5.1562 0 9.375-4.2188 9.375-9.375v-37.5c0-5.1562-4.2188-9.375-9.375-9.375h-131.25c-5.1562 0-9.375 4.2188-9.375 9.375v30.938l-18.75-18.75v-190.31zm-184.69 356.25h-18.75v-28.125h18.75zm9.375-46.875h-37.5c-5.1562 0-9.375 4.2188-9.375 9.375v37.5h-18.75v-56.25h93.75v56.25h-18.75v-37.5c0-5.1562-4.2188-9.375-9.375-9.375zm-18.75-99.141 71.016 71.016h-142.27zm97.5 71.016-18.75-18.75h77.812v18.75zm-275.62 0v-18.75h99.141l-18.75 18.75zm0 18.75h112.5v18.75h-112.5zm112.5-56.25h-112.5v-18.75h112.5zm0-37.5h-112.5v-18.75h112.5zm-112.5 131.25h112.5v18.75h-112.5zm222.19-131.25v-18.75h112.5v18.75zm-90-135.7c8.9062-9.375 21.562-13.359 33.984-11.25v136.17l-34.922 34.922v-89.766c0-5.1562-4.2188-9.375-9.375-9.375h-46.875zm-19.688 79.453v18.75h-112.5v-18.75zm-131.25 80.391v125.86h-118.83zm266.72 144.61-5.3906 16.406c-3.2812 10.078-2.8125 21.094 1.1719 30.703l13.125 31.641c1.1719 2.5781 0.23438 5.625-2.1094 7.0312l-11.484 7.9688c-25.312 17.344-36.797 48.984-28.359 78.516 0.9375 3.2812 1.4062 6.5625 1.4062 9.8438 0 9.375-3.75 18.516-10.312 25.312l-0.70312 0.70312c-24.141-1.4062-47.344 9.1406-62.578 29.062l-25.781 33.516c-2.1094 2.8125-4.9219 5.3906-7.9688 7.5s-6.3281 3.75-9.6094 4.9219c-10.781 3.5156-22.031 1.6406-31.406-4.9219-9.8438-7.2656-15.938-19.219-15.938-31.875v-2.1094c0-13.828-4.2188-27.188-11.953-38.438-25.078-36.562-58.594-66.797-96.797-87.891-8.4375-4.6875-19.219-4.6875-27.656-0.23438-11.25 5.8594-21.328 14.531-28.828 25.078-10.312 14.297-15.703 31.172-16.172 48.75-0.23438 12.422-2.3438 28.594-5.3906 43.594-33.281-72.891-51.328-153.52-52.734-235.08zm-370.08 261.56c6.3281-20.625 11.25-48.984 11.484-69.609 0.23438-13.828 4.6875-27.188 12.656-38.203 5.8594-8.2031 13.594-14.766 22.266-19.453 3.0469-1.6406 6.7969-1.6406 10.078 0 35.625 19.453 66.797 47.812 90.234 82.031 5.625 8.2031 8.6719 17.812 8.6719 27.891v2.1094c0 18.75 8.9062 36.328 23.672 47.109 14.062 10.312 31.641 13.125 48.047 7.7344 5.1562-1.6406 10.078-4.2188 14.766-7.5 4.4531-3.2812 8.4375-7.0312 11.953-11.484l25.781-33.516c12.188-15.703 30.938-23.906 50.391-21.328 0.70312 0 1.4062 0.23438 2.1094 0.23438l24.375 4.2188c20.625 3.5156 37.5 18.516 44.297 39.141 1.6406 5.1562 2.5781 10.547 3.0469 15.938 0.9375 18.75 6.7969 36.797 16.406 52.5 9.8438 15.703 23.203 28.828 39.141 37.5 3.2812 1.875 5.3906 5.625 5.3906 9.6094 0 1.875-0.46875 3.5156-1.1719 5.1562-3.75 7.5-5.8594 15.938-5.8594 24.375 0 5.3906 0.70312 10.547 2.3438 15.703 4.4531 15 17.578 24.844 32.812 24.844 7.2656 0 14.297-2.3438 20.156-6.7969l26.953-20.391c9.1406-7.0312 15.469-17.578 17.344-29.297 0.70312-5.3906 1.1719-10.781 1.1719-16.172 0-26.016-9.6094-50.859-26.953-69.609-7.2656-7.9688-15.469-14.297-24.844-19.453-4.6875-2.5781-8.9062-6.3281-11.719-11.016-3.0469-4.6875-4.9219-10.078-5.625-15.938l-6.0938-60c-2.8125-26.719 13.125-52.031 37.5-60 25.547-8.4375 42.891-32.578 42.891-60.469 0-6.3281-0.9375-12.656-2.8125-18.75-2.8125-9.1406-6.3281-17.812-11.016-26.25-4.6875-8.2031-10.312-15.938-16.641-22.734l-4.2188-4.6875c-4.2188-4.4531-7.2656-9.8438-9.375-15.703h158.44c-0.23438 1.4062-0.23438 2.8125-0.23438 4.2188 0 11.016 4.2188 21.328 11.484 29.062 12.891 13.594 30.234 20.859 48.516 20.859 10.547 0 21.094-2.5781 30.703-7.5 4.2188-2.3438 9.8438-1.4062 13.359 2.3438 5.8594 6.0938 13.594 9.375 21.797 9.375s15.938-3.2812 21.797-9.375c9.1406-9.6094 11.484-24.141 5.625-36.094l-6.3281-12.188h86.016l10.312 23.203c3.2812 7.2656 0.70312 15.938-5.625 20.391-19.688 13.359-31.406 35.625-31.406 60 0 2.5781 0.23438 5.1562 0.46875 7.7344 0.70312 6.0938 2.3438 11.953 5.1562 17.344s6.5625 10.078 11.25 14.062c6.3281 5.3906 10.078 13.359 10.078 22.031 0 11.25-6.0938 21.094-15.703 25.781-11.953 5.625-25.781 7.2656-38.203 4.4531l-35.391-7.9688c-16.641-3.75-33.984 2.5781-44.531 16.406-6.3281 8.2031-9.6094 18.516-9.6094 28.828 0 1.6406 0 3.2812 0.23438 4.9219l5.625 54.141c0.9375 9.6094 5.625 18.281 12.891 24.375 3.9844 3.2812 6.3281 8.4375 6.3281 13.828 0 3.9844-1.4062 7.9688-3.75 11.25-3.75 4.9219-8.4375 9.375-13.594 12.656l-15.938 10.781c-7.9688 5.3906-12.891 14.062-13.359 23.906s3.5156 19.219 10.781 25.312c5.3906 4.4531 11.953 6.7969 18.75 6.7969 1.1719 0 2.3438 0 3.2812-0.23438l20.156-2.3438c3.2812-0.46875 5.625 1.4062 6.7969 2.5781 2.1094 2.1094 3.0469 5.1562 2.5781 8.2031-0.70312 5.1562-0.9375 10.547-0.9375 15.938 0 6.0938 0.46875 12.188 1.4062 18.047-94.922 62.109-207.42 99.375-325.55 99.375-202.5 0.70312-387.42-114.61-483.28-300.23zm826.41 189.61c-0.23438-2.1094-0.23438-3.9844-0.23438-6.0938 0-4.6875 0.23438-9.1406 0.9375-13.594 1.1719-8.9062-1.6406-17.578-7.9688-23.906-5.8594-6.0938-14.062-8.9062-22.266-7.9688l-20.156 2.3438c-2.5781 0.23438-5.625-0.46875-7.7344-2.3438-2.8125-2.3438-4.4531-6.0938-4.2188-10.078s2.1094-7.2656 5.1562-9.375l15.938-10.781c6.7969-4.6875 12.891-10.312 17.812-16.875 4.9219-6.3281 7.7344-14.531 7.7344-22.5 0-11.016-4.6875-21.328-13.125-28.359-3.5156-2.8125-5.625-7.2656-6.0938-11.953l-5.625-54.141c0-0.9375-0.23438-2.1094-0.23438-3.0469 0-6.3281 2.1094-12.422 5.8594-17.578 6.0938-7.9688 15.938-11.719 25.547-9.6094l35.391 7.9688c16.406 3.75 34.922 1.875 50.391-5.8594 16.172-7.7344 26.25-24.141 26.25-42.656 0-14.297-6.0938-27.422-16.875-36.328-2.8125-2.3438-4.9219-5.1562-6.7969-8.4375-1.6406-3.2812-2.8125-6.7969-3.2812-10.547-0.23438-1.875-0.23438-3.9844-0.23438-5.8594 0-18.047 8.6719-34.688 23.203-44.531 14.062-9.375 18.984-27.656 12.188-43.359l-7.0312-15.703h146.95c-3.0469 180.47-103.83 346.88-251.48 451.17z"/>
  <path d="m369.61 743.2c7.0312 7.0312 11.719 16.641 13.125 26.719 0.70312 4.6875 4.6875 8.2031 9.375 8.2031h1.1719c4.6875-0.70312 8.2031-4.6875 8.2031-9.375v-5.3906c0-13.125 4.6875-26.016 13.359-35.859 3.2812-3.9844 2.8125-9.8438-0.9375-13.125-3.9844-3.2812-9.8438-2.8125-13.125 0.9375-5.3906 6.0938-9.375 13.125-12.422 20.625-1.6406-2.1094-3.2812-3.9844-4.9219-5.8594l-0.70312-0.70312c-3.75-3.75-9.6094-3.75-13.359 0s-3.75 9.6094 0 13.359z"/>
  <path d="m283.36 668.2c7.0312 7.0312 11.719 16.641 13.125 26.719 0.70312 4.6875 4.6875 8.2031 9.375 8.2031h1.1719c4.6875-0.70312 8.2031-4.6875 8.2031-9.375v-5.3906c0-13.125 4.6875-26.016 13.359-35.859 3.2812-3.9844 2.8125-9.8438-0.9375-13.125-3.9844-3.2812-9.8438-2.8125-13.125 0.9375-5.3906 6.0938-9.375 13.125-12.422 20.625-1.6406-2.1094-3.2812-3.9844-4.9219-5.8594l-0.70312-0.70312c-3.75-3.75-9.6094-3.75-13.359 0s-3.75 9.6094 0 13.359z"/>
  <path d="m112.5 651.8c7.0312 7.0312 11.719 16.641 13.125 26.719 0.70312 4.6875 4.6875 8.2031 9.375 8.2031h1.1719c4.6875-0.70312 8.2031-4.6875 8.2031-9.375v-5.3906c0-13.125 4.6875-26.016 13.359-35.859 3.2812-3.9844 2.8125-9.8438-0.9375-13.125-3.9844-3.2812-9.8438-2.8125-13.125 0.9375-5.3906 6.0938-9.375 13.125-12.422 20.625-1.6406-2.1094-3.2812-3.9844-4.9219-5.8594l-0.70312-0.70312c-3.75-3.75-9.6094-3.75-13.359 0s-3.75 9.6094 0 13.359z"/>
  <path d="m569.3 694.92c0.70312 4.6875 4.6875 8.2031 9.375 8.2031h1.1719c4.6875-0.70312 8.2031-4.6875 8.2031-9.375v-5.3906c0-13.125 4.6875-26.016 13.359-35.859 3.2812-3.9844 2.8125-9.8438-0.9375-13.125-3.9844-3.2812-9.8438-2.8125-13.125 0.9375-5.3906 6.0938-9.375 13.125-12.422 20.625-1.6406-2.1094-3.2812-3.9844-5.1562-5.8594-3.75-3.75-9.6094-3.75-13.359 0s-3.75 9.6094 0 13.359c7.0312 7.0312 11.719 16.406 12.891 26.484z"/>
  <path d="m1092.9 718.59c0.70312 4.6875 4.6875 8.2031 9.375 8.2031h1.1719c4.6875-0.70312 8.2031-4.6875 8.2031-9.375v-5.3906c0-13.125 4.6875-26.016 13.359-35.859 3.2812-3.9844 2.8125-9.8438-0.9375-13.125-3.9844-3.2812-9.8438-2.8125-13.125 0.9375-5.3906 6.0938-9.375 13.125-12.422 20.625-1.6406-2.1094-3.2812-3.9844-5.1562-5.8594-3.75-3.75-9.6094-3.75-13.359 0s-3.75 9.6094 0 13.359c6.7969 7.0312 11.484 16.406 12.891 26.484z"/>
  <path d="m1018.4 842.11c-5.3906 6.0938-9.375 13.125-12.422 20.625-1.6406-2.1094-3.2812-3.9844-5.1562-5.8594-3.75-3.75-9.6094-3.75-13.359 0s-3.75 9.6094 0 13.359c7.0312 7.0312 11.719 16.641 13.125 26.719 0.70312 4.6875 4.6875 8.2031 9.375 8.2031h1.1719c4.6875-0.70312 8.2031-4.6875 8.2031-9.375v-5.3906c0-13.125 4.6875-26.016 13.359-35.859 3.2812-3.9844 2.8125-9.8438-0.9375-13.125s-10.078-3.2812-13.359 0.70312z"/>
  <path d="m858.52 704.77c0.46875-2.3438 0-4.9219-1.4062-7.0312s-3.5156-3.5156-5.8594-3.9844c-23.906-4.9219-48.516-1.6406-69.844 9.6094h-0.46875l-80.859 24.609c-2.5781 0.70312-4.6875 2.5781-5.8594 5.1562s-1.1719 5.3906 0 7.7344l11.953 26.016-15.938 17.109-46.406 9.375c-3.75 0.70312-6.7969 3.75-7.5 7.7344-0.70312 3.75 1.1719 7.7344 4.4531 9.6094 20.156 11.719 33.75 32.578 36.562 55.781 0.46875 3.75 3.2812 7.0312 7.0312 7.9688 0.70312 0.23438 1.6406 0.23438 2.3438 0.23438 3.0469 0 5.8594-1.4062 7.7344-3.9844l27.891-39.844 21.562-14.062 13.594 20.859c1.6406 2.5781 4.6875 4.2188 7.7344 4.2188h0.23438c3.2812 0 6.0938-1.6406 7.7344-4.4531l41.484-67.266c22.734-15.469 38.203-38.672 43.828-65.391zm-123.05 31.875c-5.3906 4.9219-10.547 10.078-15.469 15.234l-4.2188-9.1406zm-44.297 106.41c-4.9219-13.359-12.891-25.547-23.203-35.156l22.969-4.6875 13.594 20.625zm74.062-28.125-5.625-8.4375 18.281-11.953zm37.734-59.297-84.375 55.312-11.484-17.344 25.078-27.188c14.297-15.469 30.469-29.297 48.047-40.781l1.875-1.1719c16.641-10.781 35.859-15.703 55.312-13.828-5.8594 18.281-18.047 34.219-34.453 45z"/>
  <path d="m479.77 942.42c-11.25-10.781-26.016-16.172-41.719-15.469-29.297 1.6406-52.734 25.781-53.203 55.078v1.1719c0 10.312 8.4375 18.516 18.75 18.516h1.875l1.4062 3.0469c0.9375 1.875 0.70312 3.9844-0.70312 5.3906l-2.8125 3.0469c-8.2031 8.9062-8.2031 22.969 0 31.641 0 0.23438 0.23438 0.23438 0.23438 0.23438 1.6406 1.875 1.6406 4.6875 0 6.5625l-0.46875 0.46875c-7.9688 9.1406-7.9688 22.734 0.46875 31.641l9.1406 9.6094c1.875 1.875 4.4531 3.0469 6.7969 3.0469s4.6875-0.9375 6.3281-2.5781c3.75-3.5156 3.9844-9.375 0.46875-13.359l-9.1406-9.6094c-1.6406-1.875-1.6406-4.6875 0-6.5625l0.46875-0.46875c7.9688-8.9062 7.9688-22.734-0.23438-31.406l-0.23438-0.23438c-1.6406-1.875-1.6406-4.6875 0-6.3281l2.8125-3.0469c5.3906-5.8594 7.2656-13.594 5.625-21.094h10.547l1.6406 3.0469c0.9375 1.875 0.70312 3.9844-0.70312 5.3906l-2.8125 3.0469c-8.2031 8.9062-8.2031 22.969 0 31.641l0.23438 0.23438c1.6406 1.875 1.6406 4.6875 0 6.3281-8.4375 8.9062-8.4375 23.203 0 32.109l9.1406 9.6094c1.875 1.875 4.4531 3.0469 6.7969 3.0469s4.6875-0.9375 6.3281-2.5781c3.75-3.5156 3.9844-9.375 0.46875-13.359l-9.1406-9.6094c-1.6406-1.875-1.6406-4.6875 0-6.3281 8.4375-8.9062 8.4375-23.203 0.23438-31.875 0-0.23438-0.23438-0.23438-0.23438-0.23438-1.6406-1.875-1.6406-4.6875 0-6.3281l2.8125-3.0469c5.1562-5.625 7.2656-13.594 5.625-21.094h12.656l1.6406 3.0469c0.9375 1.875 0.70312 3.9844-0.70312 5.3906l-2.8125 3.0469c-8.2031 8.9062-8.2031 22.969 0 31.641l0.23438 0.23438c1.6406 1.875 1.6406 4.6875 0 6.3281-8.4375 8.9062-8.4375 23.203 0 32.109l9.1406 9.6094c1.875 1.875 4.4531 3.0469 6.7969 3.0469s4.6875-0.9375 6.3281-2.5781c3.75-3.5156 3.9844-9.375 0.46875-13.359l-9.1406-9.6094c-1.6406-1.875-1.6406-4.6875 0-6.3281 8.4375-8.9062 8.4375-23.203 0.23438-31.875 0-0.23438-0.23438-0.23438-0.23438-0.23438-1.6406-1.875-1.6406-4.6875 0-6.3281l2.8125-3.0469c5.8594-6.5625 7.7344-15.703 4.6875-23.906 5.3906-3.2812 8.9062-9.1406 8.9062-15.703v-0.23438c-0.23438-15.234-6.5625-29.766-17.812-40.547zm-76.172 40.078c0.46875-19.219 16.172-35.625 35.391-36.797h2.1094c9.6094 0 18.75 3.5156 25.781 10.312 7.5 7.2656 11.719 16.875 11.719 27.188h-75z"/>
  <path d="m1102.7 215.62c-6.5625 0-12.656-3.5156-17.578-9.6094-14.297-18.281-37.5-22.031-55.312-9.1406l-33.281 24.141c-10.078 7.2656-14.062 19.688-10.078 31.406 3.75 11.719 14.297 19.453 26.719 19.453h113.91c11.016 0 20.156-6.7969 23.438-17.344s-0.46875-21.328-9.6094-27.656l-6.5625-4.4531c-6.5625-4.4531-14.297-7.0312-21.797-7.0312h-9.8438zm27.422 26.719c3.2812 2.1094 2.5781 5.3906 2.3438 6.5625-0.46875 1.1719-1.6406 4.2188-5.625 4.2188h-113.91c-6.3281 0-8.4375-4.9219-8.9062-6.3281s-1.6406-6.7969 3.2812-10.312l33.281-24.375c3.75-2.8125 7.9688-4.2188 12.188-4.2188 6.3281 0 12.656 3.2812 17.578 9.6094 8.4375 10.547 20.156 16.875 32.344 16.875h9.6094c3.9844 0 7.7344 1.1719 11.484 3.75z"/>
  <path d="m975.47 148.36h113.91c11.016 0 20.156-6.7969 23.438-17.344s-0.46875-21.328-9.6094-27.656l-6.5625-4.4531c-6.5625-4.4531-14.297-7.0312-21.797-7.0312h-9.6094c-6.5625 0-12.656-3.5156-17.578-9.6094-14.297-18.281-37.5-22.031-55.312-9.1406l-33.281 24.141c-10.078 7.2656-14.062 19.688-10.078 31.406 3.5156 11.953 14.062 19.688 26.484 19.688zm-5.625-35.625 33.281-24.141c3.75-2.8125 7.9688-4.2188 12.188-4.2188 6.3281 0 12.656 3.2812 17.578 9.6094 8.4375 10.547 20.156 16.875 32.344 16.875h9.6094c3.9844 0 7.7344 1.1719 11.484 3.75l6.5625 4.4531c3.2812 2.1094 2.5781 5.3906 2.3438 6.5625-0.46875 1.1719-1.6406 4.2188-5.625 4.2188h-113.91c-6.3281 0-8.4375-4.9219-8.9062-6.3281s-1.875-7.0312 3.0469-10.781z"/>
  <path d="m340.08 148.36h113.91c11.016 0 20.156-6.7969 23.438-17.344s-0.46875-21.328-9.6094-27.656l-6.5625-4.4531c-6.5625-4.4531-14.297-7.0312-21.797-7.0312h-9.6094c-6.5625 0-12.656-3.5156-17.578-9.6094-14.297-18.281-37.5-22.031-55.312-9.1406l-33.516 24.375c-10.078 7.2656-14.062 19.688-10.078 31.406 3.75 11.719 14.297 19.453 26.719 19.453zm-5.625-35.625 33.281-24.141c3.75-2.8125 7.9688-4.2188 12.188-4.2188 6.3281 0 12.656 3.2812 17.578 9.6094 8.4375 10.547 20.156 16.875 32.344 16.875h9.6094c3.9844 0 7.7344 1.1719 11.484 3.75l6.5625 4.4531c3.2812 2.1094 2.5781 5.3906 2.3438 6.5625-0.46875 1.1719-1.6406 4.2188-5.625 4.2188h-113.91c-6.3281 0-8.4375-4.9219-8.9062-6.3281s-1.875-7.0312 3.0469-10.781z"/>
  <path d="m96.328 140.62h113.91c11.016 0 20.156-6.7969 23.438-17.344s-0.46875-21.328-9.6094-27.656l-6.5625-4.2188c-6.5625-4.4531-14.297-7.0312-21.797-7.0312h-9.6094c-6.5625 0-12.656-3.5156-17.578-9.6094-14.297-18.281-37.5-22.031-55.312-9.1406l-33.516 24.375c-10.078 7.2656-14.062 19.688-10.078 31.406 3.75 11.719 14.297 19.219 26.719 19.219zm-5.625-35.625 33.281-24.141c3.75-2.8125 7.9688-4.2188 12.188-4.2188 6.3281 0 12.656 3.2812 17.578 9.6094 8.4375 10.547 20.156 16.875 32.344 16.875h9.6094c3.9844 0 7.7344 1.1719 11.484 3.75l6.5625 4.4531c3.2812 2.1094 2.5781 5.3906 2.3438 6.5625-0.46875 1.1719-1.6406 4.2188-5.625 4.2188h-114.14c-6.3281 0-8.4375-4.9219-8.9062-6.3281s-1.6406-7.0312 3.2812-10.781z"/>
  <path d="m428.91 290.62h131.25c5.1562 0 9.375-4.2188 9.375-9.375v-37.5c0-5.1562-4.2188-9.375-9.375-9.375h-131.25c-5.1562 0-9.375 4.2188-9.375 9.375v37.5c0 5.1562 4.2188 9.375 9.375 9.375zm9.375-37.5h112.5v18.75h-112.5z"/>
  <path d="m428.91 365.62h131.25c5.1562 0 9.375-4.2188 9.375-9.375v-37.5c0-5.1562-4.2188-9.375-9.375-9.375h-131.25c-5.1562 0-9.375 4.2188-9.375 9.375v37.5c0 5.1562 4.2188 9.375 9.375 9.375zm9.375-37.5h112.5v18.75h-112.5z"/>
  <path d="m797.34 196.88c30.938 0 56.25-25.312 56.25-56.25s-25.312-56.25-56.25-56.25-56.25 25.312-56.25 56.25 25.312 56.25 56.25 56.25zm0-93.75c20.625 0 37.5 16.875 37.5 37.5s-16.875 37.5-37.5 37.5-37.5-16.875-37.5-37.5 16.875-37.5 37.5-37.5z"/>
  <path d="m797.34 65.625c5.1562 0 9.375-4.2188 9.375-9.375v-18.75c0-5.1562-4.2188-9.375-9.375-9.375s-9.375 4.2188-9.375 9.375v18.75c0 5.1562 4.2188 9.375 9.375 9.375z"/>
  <path d="m872.34 140.62c0 5.1562 4.2188 9.375 9.375 9.375h18.75c5.1562 0 9.375-4.2188 9.375-9.375s-4.2188-9.375-9.375-9.375h-18.75c-5.1562 0-9.375 4.2188-9.375 9.375z"/>
  <path d="m694.22 150h18.75c5.1562 0 9.375-4.2188 9.375-9.375s-4.2188-9.375-9.375-9.375h-18.75c-5.1562 0-9.375 4.2188-9.375 9.375s4.2188 9.375 9.375 9.375z"/>
  <path d="m787.97 225v18.75c0 5.1562 4.2188 9.375 9.375 9.375s9.375-4.2188 9.375-9.375v-18.75c0-5.1562-4.2188-9.375-9.375-9.375s-9.375 4.2188-9.375 9.375z"/>
  <path d="m731.02 87.656c1.875 1.875 4.2188 2.8125 6.5625 2.8125s4.6875-0.9375 6.5625-2.8125c3.75-3.75 3.75-9.6094 0-13.359l-13.359-13.359c-3.75-3.75-9.6094-3.75-13.359 0s-3.75 9.6094 0 13.359z"/>
  <path d="m856.88 90.234c2.3438 0 4.6875-0.9375 6.5625-2.8125l13.359-13.359c3.75-3.75 3.75-9.6094 0-13.359s-9.6094-3.75-13.359 0l-13.359 13.359c-3.75 3.75-3.75 9.6094 0 13.359 2.1094 2.1094 4.4531 2.8125 6.7969 2.8125z"/>
  <path d="m850.31 193.59c-3.75 3.75-3.75 9.6094 0 13.359l13.359 13.359c1.875 1.875 4.2188 2.8125 6.5625 2.8125s4.6875-0.9375 6.5625-2.8125c3.75-3.75 3.75-9.6094 0-13.359l-13.359-13.359c-3.5156-3.5156-9.375-3.5156-13.125 0z"/>
  <path d="m731.02 193.59-13.359 13.359c-3.75 3.75-3.75 9.6094 0 13.359 1.875 1.875 4.2188 2.8125 6.5625 2.8125s4.6875-0.9375 6.5625-2.8125l13.359-13.359c3.75-3.75 3.75-9.6094 0-13.359-3.5156-3.5156-9.375-3.5156-13.125 0z"/>
 </g>
</svg>
