<?xml version="1.0" encoding="UTF-8"?>
<svg width="1200pt" height="1200pt" version="1.1" viewBox="0 0 1200 1200" xmlns="http://www.w3.org/2000/svg">
 <g>
  <path d="m512 838.01h192c6.6367 0 12-5.3633 12-12 0-6.6367-5.3633-12-12-12h-192c-6.625 0-12 5.3633-12 12 0 6.6367 5.3633 12 12 12z"/>
  <path d="m135 881.52c27.742 0 41.27 4.3203 55.586 8.9023 15.445 4.9453 31.402 10.055 62.902 10.055 31.488 0 47.449-5.1133 62.879-10.055 14.316-4.5859 27.828-8.9023 55.57-8.9023s41.258 4.3203 55.57 8.9023c15.434 4.9453 31.391 10.055 62.879 10.055 31.5 0 47.461-5.1133 62.902-10.055 14.316-4.5859 27.84-8.9023 55.586-8.9023 27.758 0 41.281 4.3203 55.609 8.9023 15.445 4.9453 31.414 10.055 62.914 10.055s47.473-5.1133 62.902-10.055c14.316-4.5859 27.828-8.9023 55.586-8.9023 9.7578 0 17.688 0.55078 24.59 1.4414 1.6797 0.89844 3.5039 1.5352 5.543 1.5352 0.67188 0 1.2461-0.26562 1.8828-0.38281 9.0234 1.6797 16.234 3.9492 23.617 6.3125 15.445 4.9453 31.414 10.055 62.93 10.055 31.512 0 47.496-5.1133 62.941-10.055 14.328-4.5859 27.852-8.9023 55.633-8.9023 6.6367 0 12-5.3633 12-12 0-6.6367-5.3633-12-12-12-31.512 0-47.496 5.1133-62.941 10.055-12.695 4.0664-24.816 7.9062-46.738 8.7344v-373.88c28.703-0.79297 51.816-24.254 51.816-53.148v-122.44c0-28.883-23.125-52.355-51.816-53.148v-117.7c0-6.625-5.3633-12-12-12h-711.89c-6.625 0-12 5.375-12 12v117.7c-28.754 0.71875-51.961 24.227-51.961 53.16v122.43c0 28.934 23.207 52.441 51.961 53.16v373.44c-17.496-1.3086-28.332-4.7148-39.551-8.3047-15.445-4.9453-31.402-10.055-62.891-10.055-6.625 0-12 5.3633-12 12-0.003906 6.6328 5.3594 11.996 11.984 11.996zm838.32-583.81c15.457 0.76953 27.816 13.5 27.816 29.148v122.43c0 15.648-12.359 28.367-27.816 29.148zm-601.39 559.81c-9.9609 0-18.238 0.55078-25.559 1.4023 5.7617-17.594 22.141-30.422 41.641-30.422 22.199 0 40.43 16.586 43.391 37.98-14.461-4.5703-30.289-8.9609-59.473-8.9609zm473.94 0c-31.488 0-47.461 5.1133-62.891 10.055-2.2305 0.71875-4.4414 1.4023-6.6953 2.1016 1.4883-22.922 20.426-41.172 43.727-41.172 19.176 0 35.328 12.395 41.352 29.531-4.7617-0.30078-9.8047-0.51562-15.492-0.51562zm103.45-194-64.777 74.484h-273.05v-401.53h82.5c24.527 0 45.059-16.5 51.695-38.914h203.64v365.96zm-444.32-351.05c-16.621 0-30.145-13.523-30.145-30.145 0-16.621 13.523-30.145 30.145-30.145h189c16.621 0 30.145 13.523 30.145 30.145 0 16.621-13.523 30.145-30.145 30.145zm-243.54-144.47h687.86v105.55h-202.08c-4.2227-25.668-26.398-45.371-53.258-45.371h-189c-26.844 0-49.031 19.703-53.258 45.371h-190.27zm0 129.55h191.86c6.625 22.414 27.156 38.914 51.695 38.914h82.5v401.54h-23.809c-3.2031-63.324-55.57-113.9-119.69-113.9-61.199 0-111.74 46.078-119 105.32l-63.539-56.785v-375.09zm278.23 440.45h-191.38c3.168-50.09 44.809-89.902 95.688-89.902s92.52 39.812 95.688 89.902zm-278.23-33.191 60.551 54.133c2.207 1.9688 5.0391 3.0586 8.0039 3.0586h560c3.4688 0 6.7695-1.5 9.0586-4.1289l50.258-57.781v175.85c-18.035-1.2617-29.09-4.7148-40.512-8.3633-6.7305-2.1602-13.633-4.3086-21.781-6.0977-5.293-32.258-33.289-56.977-67.02-56.977-37.5 0-68.004 30.504-68.004 67.992 0 0.875 0.3125 1.6562 0.50391 2.4727-7.0078 0.9375-15.121 1.5117-25.129 1.5117-27.758 0-41.281-4.3203-55.609-8.9023-15.445-4.9453-31.414-10.055-62.914-10.055s-47.461 5.1133-62.891 10.055c-14.316 4.5859-27.84 8.9023-55.586 8.9023-14.844 0-25.547-1.2461-34.547-3.1094 0-0.29688 0.15625-0.57031 0.15625-0.87109 0-37.488-30.504-67.992-68.004-67.992-34.621 0-63.215 26.027-67.414 59.52-4.0195 1.1523-7.8008 2.3516-11.543 3.5508-12.852 4.1172-25.152 7.9922-47.594 8.7461v-171.51zm-51.961-255.53v-122.44c0-15.695 12.445-28.453 27.961-29.16v180.76c-15.527-0.71094-27.961-13.453-27.961-29.16z"/>
  <path d="m1083 953.52c-31.512 0-47.496 5.1133-62.941 10.055-14.316 4.5859-27.852 8.9023-55.633 8.9023-27.758 0-41.293-4.3203-55.621-8.9023-15.445-4.9453-31.43-10.055-62.941-10.055-31.488 0-47.461 5.1133-62.891 10.055-14.316 4.5859-27.84 8.9023-55.598 8.9023s-41.281-4.3203-55.609-8.9023c-15.445-4.9453-31.414-10.055-62.914-10.055s-47.461 5.1133-62.891 10.055c-14.316 4.5859-27.84 8.9023-55.586 8.9023-27.742 0-41.258-4.3203-55.559-8.9023-15.445-4.9453-31.402-10.055-62.891-10.055s-47.449 5.1133-62.891 10.055c-14.305 4.5859-27.816 8.9023-55.559 8.9023-27.758 0-41.27-4.3203-55.586-8.9023-15.445-4.9453-31.402-10.055-62.891-10.055-6.625 0-12 5.3633-12 12s5.375 12 12 12c27.742 0 41.27 4.3203 55.586 8.9023 15.445 4.9453 31.402 10.055 62.902 10.055 31.488 0 47.449-5.1133 62.879-10.055 14.316-4.5859 27.828-8.9023 55.57-8.9023s41.258 4.3203 55.57 8.9023c15.434 4.9453 31.391 10.055 62.879 10.055 31.5 0 47.461-5.1133 62.902-10.055 14.316-4.5859 27.84-8.9023 55.586-8.9023 27.758 0 41.281 4.3203 55.609 8.9023 15.445 4.9453 31.414 10.055 62.914 10.055s47.473-5.1133 62.902-10.055c14.316-4.5859 27.828-8.9023 55.586-8.9023 27.77 0 41.305 4.3203 55.633 8.9023 15.445 4.9453 31.414 10.055 62.93 10.055 31.512 0 47.496-5.1133 62.941-10.055 14.328-4.5859 27.852-8.9023 55.633-8.9023 6.6367 0 12-5.3633 12-12s-5.3867-12-12.023-12z"/>
  <path d="m1083 1049.5c-31.512 0-47.496 5.1133-62.941 10.055-14.316 4.5859-27.852 8.9023-55.633 8.9023-27.758 0-41.293-4.3203-55.621-8.9023-15.445-4.9453-31.43-10.055-62.941-10.055-31.488 0-47.461 5.1133-62.891 10.055-14.316 4.5859-27.84 8.9023-55.598 8.9023s-41.281-4.3203-55.609-8.9023c-15.445-4.9453-31.414-10.055-62.914-10.055s-47.461 5.1133-62.891 10.055c-14.316 4.5859-27.84 8.9023-55.586 8.9023-27.742 0-41.258-4.3203-55.559-8.9023-15.445-4.9453-31.402-10.055-62.891-10.055s-47.449 5.1133-62.891 10.055c-14.305 4.5859-27.816 8.9023-55.559 8.9023-27.758 0-41.27-4.3203-55.586-8.9023-15.445-4.9453-31.402-10.055-62.891-10.055-6.625 0-12 5.3633-12 12s5.375 12 12 12c27.742 0 41.27 4.3203 55.586 8.9023 15.445 4.9453 31.402 10.055 62.902 10.055 31.488 0 47.449-5.1133 62.879-10.055 14.316-4.5859 27.828-8.9023 55.57-8.9023s41.258 4.3203 55.57 8.9023c15.434 4.9453 31.391 10.055 62.879 10.055 31.5 0 47.461-5.1133 62.902-10.055 14.316-4.5859 27.84-8.9023 55.586-8.9023 27.758 0 41.281 4.3203 55.609 8.9023 15.445 4.9453 31.414 10.055 62.914 10.055s47.473-5.1133 62.902-10.055c14.316-4.5859 27.828-8.9023 55.586-8.9023 27.77 0 41.305 4.3203 55.633 8.9023 15.445 4.9453 31.414 10.055 62.93 10.055 31.512 0 47.496-5.1133 62.941-10.055 14.328-4.5859 27.852-8.9023 55.633-8.9023 6.6367 0 12-5.3633 12-12s-5.3867-12-12.023-12z"/>
 </g>
</svg>
