<?xml version="1.0" encoding="UTF-8"?>
<svg width="1200pt" height="1200pt" version="1.1" viewBox="0 0 1200 1200" xmlns="http://www.w3.org/2000/svg">
 <path d="m1175.8 305.49-281.25-281.25c-3.5078-3.5234-8.2891-5.4922-13.258-5.4922h-562.5c-4.9688 0-9.75 1.9688-13.258 5.4922l-281.25 281.25c-3.5234 3.5078-5.4922 8.2695-5.4922 13.258v562.5c0 4.9883 1.9688 9.75 5.4922 13.258l281.25 281.25c3.5078 3.5234 8.2891 5.4922 13.258 5.4922h562.5c4.9688 0 9.75-1.9688 13.258-5.4922l281.25-281.25c3.5234-3.5078 5.4922-8.2695 5.4922-13.258v-562.5c0-4.9883-1.9688-9.75-5.4922-13.258zm-1119.5 21.02 270.26-270.26h351.9c-37.367 18.074-72.039 42.113-102.26 72.336l-443.72 443.72c-49.328-60.129-76.18-134.81-76.18-213.62zm543.75 715.73-442.24-442.24 442.24-442.24 442.24 442.24zm-243.75 101.51h-29.738l-270.26-270.26v-351.9c18.074 37.387 42.113 72.039 72.336 102.28l443.72 443.72c-60.129 49.332-134.81 76.164-213.62 76.164zm787.5-270.26-270.26 270.26h-351.9c37.367-18.074 72.039-42.113 102.26-72.336l443.72-443.72c49.332 60.129 76.184 134.81 76.184 213.62zm-72.336-297.34-443.72-443.72c60.129-49.348 134.81-76.18 213.62-76.18h32.176l270.26 270.26v351.9c-18.074-37.387-42.113-72.035-72.336-102.26z"/>
</svg>
