<?xml version="1.0" encoding="UTF-8"?>
<svg width="1200pt" height="1200pt" version="1.1" viewBox="0 0 1200 1200" xmlns="http://www.w3.org/2000/svg">
 <g>
  <path d="m1077.6 594-100.8-153.6c-2.3984-4.8008-4.8008-9.6016-4.8008-16.801-19.199-224.4-204-393.6-429.6-393.6-237.6 0-432 193.2-432 432 0 138 63.602 276 171.6 367.2 2.3984 2.3984 7.1992 7.1992 7.1992 13.199v228c0 36 26.398 64.801 62.398 68.398l342 30h6c16.801 0 33.602-6 45.602-18 14.398-13.199 22.801-31.199 22.801-50.398v-145.2h105.6c55.199 0 100.8-45.602 100.8-100.8l-0.003906-140.4h37.199c28.801 0 55.199-15.602 68.398-40.801 14.402-25.199 13.203-55.199-2.3945-79.199zm-56.402 48c-1.1992 2.3984-3.6016 6-9.6016 6h-58.801c-25.199 0-46.801 20.398-46.801 46.801v160.8c0 18-14.398 33.602-33.602 33.602h-120c-28.801 0-52.801 24-52.801 52.801l-1.1992 162-343.2-31.199v-228c0-24-10.801-48-30-64.801-91.199-78-147.6-199.2-147.6-316.8 0-201.6 163.2-364.8 364.8-364.8 189.61-1.2031 345.61 141.6 362.41 331.2 1.1992 15.602 6 31.199 14.398 45.602l102 154.8c2.4023 4.7969 1.1992 9.5977 0 11.996z"/>
  <path d="m594 253.2c0-25.199-20.398-44.398-45.602-44.398-25.199 0-45.602 20.398-45.602 44.398 0 16.801 9.6016 32.398 24 39.602v370.8c-14.398 7.1992-24 22.801-24 39.602 0 25.199 20.398 45.602 45.602 45.602 25.199 0 45.602-20.398 45.602-45.602 0-16.801-9.6016-32.398-24-39.602v-369.6c14.398-8.3984 24-24 24-40.801z"/>
  <path d="m415.2 322.8c14.398-7.1992 24-22.801 24-39.602 0-25.199-20.398-45.602-44.398-45.602s-45.602 20.398-45.602 45.602c0 16.801 9.6016 32.398 24 39.602v81.602h64.801v55.199h-94.801c-7.1992-14.398-22.801-24-39.602-24-25.199 0-45.602 20.398-45.602 44.398 0 25.199 20.398 45.602 45.602 45.602 16.801 0 32.398-9.6016 39.602-24h94.801v55.199h-64.801v81.602c-14.398 7.1992-24 22.801-24 39.602 0 25.199 20.398 45.602 45.602 45.602 25.199 0 44.398-20.398 44.398-45.602 0-16.801-9.6016-32.398-24-39.602v-40.801h64.801v-235.2h-64.801z"/>
  <path d="m794.4 434.4c-16.801 0-32.398 9.6016-39.602 24h-94.797v-55.199h64.801v-81.602c14.398-7.1992 24-22.801 24-39.602 0-25.199-20.398-45.602-45.602-45.602-25.199 0-44.398 20.398-44.398 45.602 0 16.801 9.6016 32.398 24 39.602v40.801h-64.801v232.8h66v40.801c-14.398 7.1992-24 22.801-24 39.602 0 25.199 20.398 44.398 44.398 44.398 25.199 0 45.602-20.398 45.602-44.398 0-16.801-9.6016-32.398-24-39.602v-81.602h-66v-55.199h94.801c7.1992 14.398 22.801 24 39.602 24 25.199 0 45.602-20.398 45.602-44.398-0.003906-25.199-20.402-44.402-45.605-44.402z"/>
 </g>
</svg>
